<mxfile host="www.draw.io" modified="2019-11-22T12:58:00.799Z" agent="Mozilla/5.0 (Windows NT 10.0; Win64; x64) AppleWebKit/537.36 (KHTML, like Gecko) Chrome/78.0.3904.108 Safari/537.36" etag="egRkt6On3v9pk8wZ2eWY" version="12.2.8" type="github" pages="1">
  <diagram id="2ln_X4oVi2XBikqc1w2L" name="Page-1">
    <mxGraphModel dx="4024" dy="1188" grid="1" gridSize="10" guides="1" tooltips="1" connect="1" arrows="1" fold="1" page="1" pageScale="1" pageWidth="827" pageHeight="1169" math="0" shadow="1">
      <root>
        <mxCell id="0"/>
        <mxCell id="1" parent="0"/>
        <mxCell id="D9KQNR6pZfDjxS4KEUd9-2" value="STACK&amp;nbsp; &amp;nbsp;DEVELOPMENT" style="text;html=1;strokeColor=none;fillColor=none;align=center;verticalAlign=middle;whiteSpace=wrap;rounded=0;" parent="1" vertex="1">
          <mxGeometry x="30" y="20" width="180" height="20" as="geometry"/>
        </mxCell>
        <mxCell id="D9KQNR6pZfDjxS4KEUd9-6" value="" style="group" parent="1" vertex="1" connectable="0">
          <mxGeometry x="37.5" y="125" width="345" height="90" as="geometry"/>
        </mxCell>
        <mxCell id="D9KQNR6pZfDjxS4KEUd9-3" value="" style="shape=image;verticalLabelPosition=bottom;labelBackgroundColor=#ffffff;verticalAlign=top;aspect=fixed;imageAspect=0;image=data:image/png,iVBORw0KGgoAAAANSUhEUgAABLAAAAK8CAYAAAD/M0aOAABDmklEQVR42uzd34/V9Z7v+U+ls4FQVYuyOJPj8dgyOBpGQ9golKbd7rR4kubmZP4BvYCZZJhRrk7mBm5YZEa46yuiXfgn6MUkfdFU7aZkI7Adi0nkDFCINCgjIRMBa1WBlC3Uez6f5d693Sryq358v2s9HskrOafTvXtVQcf4zHe9vykBAAAAAAAAAAAAAAAAAAAAAAAAAAAAAAAAAAAAAAAAAAAAAAAAAAAAAAAAAAAAAAAAAAAAAAAAAAAAAAAAAAAAAAAAAAAAAAAAAAAAAAAAAAAAAAAAAAAAAAAAAAAAAAAAAAAAAAAAAAAAAAAAAAAAAAAAAAAAAAAAAAAAAAAAAAAAAAAAAAAAAAAAAAAAAAAAAAAAAAAAAAAAAAAAAAAAAAAAAAAAAAAAAAAAAAAAAAAAAAAAAAAAAAAAAAAAAAAAAAAAAAAAAAAAAAAAAAAAAAAAAAAAAAAAAAAAAAAAAAAAAAAAAAAAAAAAAAAAAAAAAAAAAAAAAAAAAAAAAAAAAAAAAAAAAAAAAAAAAAAAAAAAAAAAAAAAAAAAAAAAAAAAAAAAAAAAAAAAAAAAAAAAAAAAAAAAAAAAAAAAAAAAAAAAAAAAAAAAAAAAAAAAAAAAAAAAAAAAAAAAAAAAAAAAAAAAAAAAAAAAAAAAAAAAAAAAAAAAAAAAAAAAAAAAAAAAAAAAAAAAAAAAAAAAAAAAAAAAAAAAAAAAAAAAAAAAAAAAAAAAAAAAAAAAAAAAAAAAAAAAAAAAAAAAAAAAAAAAAAAAAAAAAAAAAAAAAAAAAAAAAAAAAAAAAAAAAAAAAAAAAAAAAAAAAAAAAAAAAAAAAAAAAAAAAAAAAAAAAAAAAAAAAAAAAAAAAAAAAAAAAAAAAAAAAAAAAAAAAAAAAAAAAAAAAAAAAAAAAAAAAAAAAAAAAAAAAAAAAAAAAAAAAAAAAAAAAAAAAAAAAAAAAAAAAAAAAAAAAAAAAAAAAAAAAAAAAAAAAAAAAAAAAAAAAAAAAAAAAAAAAAAAAAAAAAAAAAAAAAAAAAAAAAAAAAAAAADAnfxLes6sW/e3F9JzzXPpud8dSb/+3e/Tr5sfpl//bV4y68YBAAAIWGbV2WBeM+/qhfRcnMs7kn4dv8/L/xJ/9cPvQ9agoGECFgAAgIBlttDRamfeSN6NvCj7mYD1p93IG8nbKWaZgAUAACBgmc3XBn4uWv1wvxCw7hSzBoQOE7AAAAAELLOH2fK8v8t7K+/rn4tWDxCwfriv897K+7u85aKHCVgAAAACltn9Rqurd4tWDxmwfrirYpYJWAAAAAKW2T0dY7+faDWHAevHMcvxdxOwAAAABCyznz/GXoGA5fi7CVgAAAACljnGPjfRap4DluPvJmABAAAIWOYYe20CluPvJmABAAAIWOYYe20CluPvJmABAAAIWNbNx9hrFrAcfzcBCwAAQMCybjvGXuOA5fi7CVgAAAAClnXDMfYOCFiOv5uABQAAIGBZJx9j77CA5fi7CVgAAAAClnXaMfYODliOv5uABQAAILbYHK4W0arGAetOMUt8MQELAAAQsMzu8Rh71G01Dlg/nOPvJmABAAACllkV3yAoYHmToQlYAACAgGX2c3etah+tOjhg/VzMci/LBCwAAEDAMsfYBSzH303AAgAAELDMMXYBy/F3E7AAAAABy9y1qvMxdgHL8XcTsAAAAAHLHGMXsDp3jr+bgAUAAAhY5hi7gOX4uwlYAAAAApZ19TF2AcvxdxOwAAAAAcscYxewxCzH3wUsAAAAAcscYxewHH83AQsAAEDAcozdBCzH303AAgAABCxzjF3AcvzdBCwAAAAByzF2d60ELMffTcACAAAELHOMXcAyx98FLAAAAAHLHGMXsBx/NwELAABAwHKM3QQsx99NwAIAAAQsc4xdwDLH3wUsAAAAAcsxdhOwHH83AQsAABCwzDF2AcscfxewAAAABCzH2E3AMsffBSwAAAAByzF2E7AcfzcBCwAAELDMMXYByxx/F7AAAAAELMfYTcAyx98FLAAAQMAyx9gFLAHL8XcBCwAAQMByjN0ELHP8XcACAAAQsBxjNwHLHH8XsAAAAAHLMXYTsMzxdwELAABAwHKM3RZin6cXYyL9hxhL/z4OpyGBx/F3AQsAAEDAcozdqrQNcTb9+/j/Nr8Z/3Xz/xq/S/9NHMn/dWHH8XcBCwAAQMByjN0qsnUxkRoRUzdiJm8k9cXhtFbMsa69lwUAACBgOcZuldrzcSatjMub3ow/ObnpjRhNj8SHab2IY115/B0AAEDAcozdKhawTqdfRWv4/X8LWJeH34t/Sn8lYFnXHn8HAAAQsBxjtwrFq7NpdZzvfTFuXW39W8D6Lv+/j/YOxVhaJWJZVx5/BwAAELAcY7cKBayJtDyuNffHj11sDseBtEzAsq48/g4AACBgOcZulXr66oW4ff3mTwJW+a8dG3wpPkhPijPWdcffAQAABCzH2K0SWx8TPQPx9e53407ObXurfQvrSP7vF2Wsm46/AwAACFgPvgHRyuZq59IzeWviduvGHQPW5NjHMZoG4nBaK8bYXMasAQELAACgswLWD4+xfy282NxsQ0ykgfhy4+txNyeGtsRI6vMUls3lvq768XcAAAAByxsEbdG3Ls6kgZgZP3XXgDU9fjJGU8NTWNZVbzIEAAAQsH75rlVTtLL5f/qqEZeGtsa9OrnpjRhNj3gjoS1EzGpW4V4WAACAgOUYuy3q7au18Wl6LGaOn77ngHV5+L32MXcBy7rl+DsAAICA5Ri7Ldqej7Ppifi88Wrcj++utuJo71CMpVUilnXF8XcAAIBuDViOsVslAtZEWh7Xdr0TMXtfDSsuNofjQFomYFlXHH8HAADopoDlGLtV7Omr1XG+94W4ff1m3K/yP3Ns8KX4ID0ppFjHH38HAADohoDlGLtVcOtjomcgvt79bjyoc9veat/COpL/8wQU6+Tj7wAAAJ0asBxjt4ofb38mb03cbt144IA1OfZxjKaBOJzWiibW0cffAQAAOilgOcZuNdmGmEgD8eXG1+NhnRjaEiOpz1NY1tHH3wEAAOoesBxjtxpuXZxJAzEzfuqhA9b0+MkYTQ1PYVlHH38HAACoY8ByjN1q/vRVIy4NbY25cnLTGzGaHvFGQuvY4+8AAAB1CliOsVsH3L5aG5+mx2Lm+Ok5C1iXh99rH3MXsKxTj78DAABUPWA5xm4dtOfjbHoiPm+8GnPpu6utONo7FGNplYhlHXn8HQAAoMoB6x9FK+u0gDWRlse1Xe9EzM5pw4qLzeE4kJYJWNaJMesf/RMRAACocsASPKzDnr5aHed7X4jb12/GXCv/mccGX4oP0pOih3Xc/BMRAACocsCaEj2sc7Y+JnoG4uvd78Z8ObftrfYtrCP5f5/oYR20Kf9EBAAAqhywRA/roOPtz+StidutG/MWsCbHPo7RNBCH01rRwzyBBQAAsEABa0T4sM7YhphIA/Hlxtdjvp0Y2hIjqc9TWNZJG/FPRAAAoMoBa7vwYZ2xdXEmDcTM+Kl5D1jT4ydjNDU8hWWdtO3+iQgAAFQ5YDWFD+uMp68acWloayyUk5veiNH0iDcSWqes6Z+IAABAlQPWXvHD6n/7am18mh6LmeOnFyxgXR5+r33MXcCyDtle/0QEAACqHLB25s2KIFbfPR9n0xPxeePVWEjfXW3F0d6hGEurRCyr+2bzdvonIgAAUOWAtTJvWgSxOgesibQ8ru16J2J2QRtWXGwOx4G0TMCyum86b6V/IgIAAFUOWEvyWiKI1ffpq9VxvveFuH39Ziy08r/z2OBL8UF6UgSxOq+Vt8Q/EQEAgCoHrP68KSHE6rn1MdEzEF/vfjcWy7ltb7VvYR3Jn0cIsZpuKq/fPxEBAIAqB6wVIojV93j7M3lr4nbrxqIFrMmxj2M0DcThtFYIsTpvhX8iAgAAVQ5YS/NGxBCr3zbERBqILze+HovtxNCWGEl9nsKyum4kb6l/IgIAAFUOWGXbxRCr39bFmTQQM+OnFj1gTY+fjNHU8BSW1XXb8/wDEQAAqHzAaoohVr+nrxpxaWhrVMXJTW/EaHrEGwmtjmsKWAAAQB0C1j5BxOp1+2ptfJoei5njpysTsC4Pv9c+5i5gWQ23T8ACAADqELA2530rjFg99nycTU/E541Xo0q+u9qKo71DMZZWiVhWp32bt1nAAgAA6hCwyiaFEatLwJpIy+ParnciZivVsOJiczgOpGUCltVpkyVeCVgAAEAdAlZ/3pQwYvV4+mp1nO99IW5fvxlVUz7TscGX4oP0pDBiddlUXr+ABQAA1CFgNXyF0Oqx9THRMxBf7343qurctrfat7CO5M8rjlhNvkLYELAAAIA6BKy+vCviiFX/ePszeWvidutGZQPW5NjHMZoG4nBaK45YHXYlr0/AAgAA6hCwevL2CCRW7W2IiTQQX258ParuxNCWGEl9nsKyOmxPXo+ABQAA1CFgle0QSKzaWxdn0kDMjJ+qfMCaHj8Zo6nhKSyrw3Y44g4AANQpYDUFEqv201eNuDS0Neri5KY3YjQ94o2EVvU1BSwAAKBOAWufSGLVvX21Nj5Nj8XM8dO1CViXh99rH3MXsKzi2ydgAQAAdQpYm72J0Kq55+NseiI+b7wadfLd1VYc7R2KsbRKxLIqv4Fws4AFAADUKWCVTYolVsWANZGWx7Vd70TM1qphxcXmcBxIywQsq+om/xSvBCwAAKAuAas/b0osseo9fbU6zve+ELev34y6KZ/52OBL8UF6UiyxKm4qr1/AAgAA6hSwVoglVtmnr5r7o67ObXurfQvrSP55BBOr4FYIWAAAQJ0C1tK8EcHEqrTP0lNxYfDlWj599SeTYx/HaBqIw2mtWGJV20jeUgELAACoU8Aq2y6aWHW2IU6nX8VX2/ZE3Z0Y2hIjqc9TWFa1bXcDCwAAqGPAaoomVp2tizNpML4ZG699wJoePxmjqeEpLKvamgIWAABQx4C1VzSxqjx9NZEacWloa3SKk5veiNH0iDcSWpW2V8ACAADqGLB25s2KJ1aNp68GYmb8VMcErMvD77WPuQtYVpHN5u0UsAAAgDoGrJV50+KJLfabB8+klXF505vRSb672oqjvUMxllaJWFaFTeetFLAAAIA6BqwleS0BxRY7YJXj7a3h96PTXGwOx4G0TMCyKqyVt0TAAgAA6hiw+vOmBBRbzHh1Nq2O870vxq2rrY4LWLev34xjgy/FB+lJAcUWe1N5/QIWAABQx4C1QkCxxQ5YE2l5XGvuj051bttb7VtYR/LPK6LYIm+FgAUAANQxYC3NGxFRbLH2WXoqLgy+3H5SqVNNjn0co2kgDqe1Aoot5kbylgpYAABAHQNW2XYhxRZnG9q3r77atic63YmhLTGS+jyFZYu57T+MVwIWAABQt4DVFFJscbYuzqTB+GZsvOMD1vT4yRhNDU9h2WKuKWABAAB1Dlj7hBRbjKevJlIjLg1tjW5xctMbMZoe8UZCW6ztE7AAAIA6B6zNed8KKrbwT18NxMz4qa4JWJeH32sfcxewbBH2bd5mAQsAAKhzwCqbFFRsId88eCatjMub3oxu8t3VVhztHYqxtErEsoXe5I/jlYAFAADULWD1502JKraQAascb28Nvx/d5mJzOA6kZQKWLfSm8voFLAAAoM4Bq+ErhLaQ8epsWh3ne1+MW1dbXRewbl+/GccGX4oP0pOiii30VwgbAhYAAFDngNWXd0VYsYUKWBNpeVxr7o9udW7bW+1bWEfy70NYsQXalbw+AQsAAKhzwOrJ2yOs2ELss/RUXBh8uf0kUreaHPs4RtNAHE5rhRVbqO3J6xGwAACAOgessh3iis3/NrRvX321bU90uxNDW2Ik9XkKyxZqOxxxBwAAOiFgNcUVm/+tizNpML4ZG+/6gDU9fjJGU8NTWLZQawpYAABAJwSsfeKKzffTVxOpEZeGtgbfO7npjRhNj3gjoS3E9glYAABAJwSszd5EaPP/9NVAzIyfUq7+6PLwe+1j7gKWLcAbCDcLWAAAQCcErLJJkcXm682DZ9LKuLzpTdXqB7672oqjvUMxllaJWDafm/y5eCVgAQAAdQxY/XlTQovNV8Aqx9tbw++rVj9ysTkcB9IyAcvmc1N5/QIWAADQCQFrhchi8xWvzqbVcb73xbh1taVY/cjt6zfj2OBL8UF6Umix+dwKAQsAAOiEgLU0b0RssfkIWBNpeVxr7ler7uDctrfat7CO5N+X0GLzsJG8pQIWAADQCQGrbLvYYnO9z9JTcWHw5faTRvy8ybGPYzQNxOG0Vmyx+dh2N7AAAIBOClhNwcXmdhvat6++2rZHpbqLE0NbYiT1eQrL5mNNAQsAAOikgLVXcLG53bo4kwbjm7FxheoupsdPxmhqeArL5mN7BSwAAKCTAtbOvFnRxebq6auJ1IhLQ1vVqXt0ctMbMZoe8UZCm8vN5u0UsAAAgE4KWCvzpoUXm7unrwZiZvyUMnWPLg+/1z7mLmDZHG46b6WABQAAdFLAWpLXEl5sLt48eCatjMub3lSl7sN3V1txtHcoxtIqEcvmaq28JQIWAADQSQGrP29KfLG5CFjleHtr+H1V6j5dbA7HgbRMwLK52lRev4AFAAB0UsBaIbzYXMSrs2l1nO99MW5dbSlS9+n29ZtxbPCl+CA9Kb7YXG2FgAUAAHRSwFqaNyLA2MMGrIm0PK4196tRD+jctrfat7CO5N+n+GIPuZG8pQIWAADQSQGrbLsAYw+zz9JTcWHw5faTRDyYybGPYzQNxOG0VoCxh932O8UrAQsAAKhzwGqKMPbg29C+ffXVtj2VDkRTB45FK6/KTgxtiZHU5ykse9g1BSwAAKATA9Y+EcYefOviTBqMb8bGKx2HPu3/TYz3vxSzFf6M0+MnYzQ1PIVlD7t9AhYAANCJAWtz3rdCjD3I01cTqRGXhrZW+/t5rRtxJq2KQ+nx+Nf8/66yk5veiNH0iDcS2oPu27zNAhYAANCJAatsUoyxB3v6aiBmxk9VtwjNRkw2/yFO58/5u9SIC813osqPYV0efq99zF3Asgfc5C/FKwELAACoc8Dqz5sSY6wjn77Kvmhsik/TqhhLfx3HGq9U+rN+d7UVR3uH8mddJWLZg2wqr1/AAgAAOjFgNXyF0O5359La+DQ9FjPHT1c6CJXP91n6j3lr43B6Nn6XHo3pin/mi83hOJCWCVj2oF8hbAhYAABAJwasvrwroozd+56Ps+mJ+LzxauWfvipPiH2aVsS5tCGO5s/+T6mv/ba/Krt9/WYcG3wpPkhPCjJ2v7uS1ydgAQAAnRiwevL2iDJ2PwFrIi2Pa7uqfU+qvBmxvCHxfFoX5/LnPpL/Bf9QWhujaSAmxz6udMQ6t+2t9i2sI/lzizJ2H9uT1yNgAQAAnRiwynaIMnbvT1+tjvO9L7SfFKqyr7btidPpV/F52vBvAetw+ymsv2oHoiorga2EtsNprShj97MdjrgDAACdHLCawozd29bHRM9AfL373UoHoFtXW3Fh8LfxWXoqLrRvdn0fsH6fV76a94fB37QPpldZ+arjSOrzFJbdz5oCFgAA0MkBa58wY/d2vP2ZvDVxu3Wj0vGnNfx+++mr8sTYjwNWOY5ensK6PPxepX+G6fGTMZoansKy+9k+AQsAAOjkgLXZmwjt7tsQE2kgvtz4euWPt1/e9GacSSvvGLBG0yNxctMblf85ymcsn9UbCe0e30C4WcACAAA6OWCVTQo09stbF2fSQMyMn6p09Cmfr3zO8nnL5/5pwPp1+6mm8nRTecqp0iFu+L3202IClt3DJu8WrwQsAACg7gGrP29KoLFffvqqEZeGtlb+qaXyhNhEO2BtuGPAKnelSsD6ZONrlf5Zyp2uo71DMZZWiVh2t03l9QtYAABAJwesFQKN/fLtq7XxaXosZo6frnTwKbe5yo2ucqvrT5/95wJW2aH833coPR23Kn7P62JzOA6kZQKW3ctWCFgAAEAnB6yleSNCjf38no+z6Yn4vPFqtR+9mo241vyHONMz0H5b4t0C1odpXYz2NOKL5jvt/9nKRrnrN+PY4EvttycKNPYLG8lbKmABAACdHLDKtgs1dqeANZGWx7Vd1Q49RYlsJbaVz3z3gLU+DqbH46PGK5X/WuS5bW+1b2GVrz4KNXaHbXcDCwAA6IaA1RRq7Oefvlod53tfaD8JVOnj7cdPt7/mWL7u+MOf4c4Bq/z/n42D6dGYrvhXIyfHPo7RNNA+Pi/U2B3WFLAAAIBuCFh7xRr76dbHRM9AfL373co/pVQOzJdD83863n4vAas80TSS+uLE0JbK/3zlM5bP6iksu8P2ClgAAEA3BKydebOCjf3l8fZn2kfRb1f80Pk3Y+NxJg3mz7zuJz/DLwWssvJUU3m6qTzlVGXT4yfbb070FJb9zGbzdgpYAABANwSslXnToo39eRtiIg3Elxtfr/zTSV9t2xOn069+8vTVvQSs8kRTuS9V7kxV3clNb8RoesQbCe3Hm85bKWABAADdELCW5LVEG/vz1sWZNBAz46cqHXVuXW3FhcHfxmfpqZ/9Oe4WsMrKG/7+MPib+C7/Z1XZ5eH32rFNwLIfrZW3RMACAAC6IWD1502JNvbnp68a7btSVdcafv+PT189/8ABqwShEoZKIKqyEtiO9g7FWFolYtkPN5XXL2ABAADdELBWiDb259tXa9tv9Jup+Nv52k8lbXozzqSVDx2wylfzylf0qu5iczgOpGUClv14KwQsAACgGwLW0rwR8cZKCDqbnojPG69WPuaUrzeWrzn+3PH2+wtYfzrm3mgfS6+y29dvxrHBl9pfexRt7I8byVsqYAEAAN0QsMq2izdWAtZEWh7Xdr0TMVvtgFUOzE+0A9aGhw5Y5Zh7CVifbHyt8uGuHJwvX3ksn1m8sbzt9xKvBCwAAKBTAlZTvBGvzqbVcb73hfaTPpV+Eql1I86lNXnP/OLPdK8Bq+xQ/s87lJ6OW/k/u8omxz6O0TTQfmpMvLG8poAFAAB0U8DaJ+B0+9bHRM9AfL373Wo/gjQbca35D3GmZ6D9mecqYH2Y1sVoTyO+aFb/6bMTQ1tiJPV5CsvK9glYAABANwWszXnfijjdfLz9mfZTTbcr/gRSUW50lVtddzre/mABa30cTI/HR41XKv/zl1td5SuPnsLq+n2bt1nAAgAAuilglU0KOd26De17UuWuVOWPtx8/3X5LYnlb4t1+rvsLWOW/59k4mB6N6Rq8gbG8NbG8PdEbCbt6k/carwQsAACgUwJWf96UkNOtW9d+o195s1/V3cvx9gcNWHU65n55+L32MXcBq6s3ldcvYAEAAN0UsBq+QtjNT1814tLQ1spHm3s93v6gAatOx9y/u9qKo71DMZZWiVjd/RXChoAFAAB0U8Dqy7si5nTj7au17a/kzdTga3PlwPzEPRxvf5iA9adj7hd376/87+NiczgOpGUCVvfuSl6fgAUAAHRTwOrJ2yPodNuebx9DL0fRq+7W1Vac730xf97Vdz3e/nABa337qabydFN5yqnST6RdvxnHBl+KD9KTYk53bk9ej4AFAAB0U8Aq2yHodF/AmkjL49qudyJmqx2wWsPvx+n0q3uOVw8esL6PWOW+VLkzVXXntr3V/qzlfpeg03Xb4Yg7AADQjQGrKeh029NXq+N87wvtJ3kqf7R805txJq1csIBV3vBX3vRXdZNjH+fPOhCH01pBp/vWFLAAAIBuDFj7RJ1u2vr2PalyV6rqvhkbjzNpsP22xPv5GR88YP26HYRKGCqBqOpODG2JkdTnKazu2z4BCwAA6MaAtdmbCLvpePsz7Tf63a742/aKr7bt+ePXBzcsWMAqMah8Na98Ra/qpsdPxmhqeAqr+95AuFnAAgAAujFglU2KO92wDTGRBuLLja9XPs6UrzdeGHw5PktP3ffP+TABq6wcRy9H0uvwFcvydcfytUdvJOyaTd5PvBKwAACATgpY/XlT4k43bF2cSQMxM36q2lVmNtoH5suh+fu5fTVXAavEoANpWXyx6+3KH7kvB+fLE2MCVtdsKq9fwAIAALoxYK0Qdrrl6atGXBraGnXweePVOJueWLSAdTA9Hh81Xqn87+m7q6042jsUY2mViNU9WyFgAQAA3RiwluaNCDydfvtqbXyaHouZ46crH2XKZyyftXzmB/lZHz5glf+5Z+NgejSma/D7utgcbj8xJmB1xUbylgpYAABANwassu0iTyfv+fbTTOWppjooN7rKra77Pd4+lwGrHHMvB9I/2fhaLe6FlZtd5XaXwNPx2+4GFgAA0M0BqynydHbAKvekyl2pqt90Km9HLG9JLG9LfNCfdy4CVtmh/DkOpafjVg3e2FjemlhuYZXwJvJ09JoCFgAA0M0Ba6/I08lPX62O870v1OKtel/vfjcmesrTV+sXPWB9mNbFaE8jLu7eX/nf2+TYxzGaBuJwWivydPb2ClgAAEA3B6ydebNiTydufTsIlTBUdbeutuJ874vt4PYgx9vnPmCtbx9HL0fSy7H0qjsxtCVGUp+nsDp3s3k7BSwAAKCbA9bKvGmxpxOPtz/T/kre7Rp8Da41/H6cTr96qHg1twHr+4hVvpp3efi9yv/+psdPtu92eQqrYzedt1LAAgAAujlgLclrCT6dtg3tY+jlKHodXN70ZpxJKysXsEbTI3Fy0xu1+B2Wz1k+rzcSduRaeUsELAAAoJsDVn/elODTaVsXZ9JAzIyfqnx4+WZsPH/WwfZnftife24D1q/bTzSV+1LlzlTlI+Dwe+0nxgSsjtxUXr+ABQAAdHPAWiH2dOLTV424NLS1Fk8OfbVtzx+/PrihcgGr3JQqUai86a/qyq2ucrOr3O4SsTpyKwQsAACgmwPW0rwR0cfTV4uhvB3xwuDL8Vl6ak5+9rkOWGUfpCfj2OBLtXiT48XmcBxIywSszttI3lIBCwAA6OaAVbZd9OmUPd++JVVuSlXebMS1Xe/ERFr+0Lev5jNglRhUotAXu95uf+aqB8ES20p0E306atvvN14JWAAAQCcGrKbw0zkBq3wdr7zVrw4+b7waZ9MTlQ9YB9Pj8VHjlVr8TsvXHcvXHsvXH4WfjllTwAIAAASs9Nxe4acz4tXZtDrO974Yt662Kh9aZo6fjk/TY3EurZ2z38H8BKzyn/VsHEyPxnT+zFVXDs6Xw/PlAL3w0zHbK2ABAAACVnpuZ96sAFT/gFW+jnetub8WTwp9ufH1/HkH5uR4+3wHrPI002hqxCcbX6vF7/bE0JYYSX2ewuqMzebtFLAAAAABKz23Mm9aAKr3yiH0chC9DsfGb7duxLm0Ju+ZOf0dzFfAKjuUP++h9HTcyp+96qbHT7aDm6ewOmLTeSsFLAAAQMBKzy3Ja4lAdd6G9u2rr7btqcUTQl/vfjcmesrTV+trE7A+TOtitKcRF3fX4wm3k5veiNH0iDcS1n+tvCUCFgAAIGCl5xp534pAdd66OJMG45ux8cqHlXKfq9zpKve65up4+8IErPUxllbF0d6h+K4GN8YuD7/XPuYuYNV+3+Y1BCwAAEDASs/15V0Rger79NVEasSloa21eDKovCGxPC021/Fq/gPW9xGrRKESh6quRLYS20p0E7FqvSt5fQIWAAAgYKXnevL2CEF1fvpqIGbGT9UiYF3e9Gb+vCtrG7DK1/LK1/Pq4GJzOA6kZQJWvbcnr0fAAgAABKzvt0MIquebB0sMKlGoDspXHMtXHUt0m4/fx/wHrF+3D6OPpoGYHPu4+sfyr9+MY4MvxQfpSSGovtvxIPFKwAIAADo1YDXFoHoGrPJ1vPK1vDooR+a///rghtoGrCP5P798jfDctrdq8Tsvn7N83vK5xaBarilgAQAAAtaft08Mql+8KofQy0H0WzU4Kl4+44XB38Zn6al5+50sRMAqK080/WHwN7U45l6eFCtPjJUnx8SgWm6fgAUAAAhYf95mbyKsX8CaSMvjWnN/1x9vX+iAVadj7sWJoS0xkvo8hVXPNxBuFrAAAAAB6y83KQrVZ+VJpguDL7fvHHX78fbFCFh1OuY+PX4yf96Gp7Dqt8kHjVcCFgAA0KkBqz9vShiqyza0n2YqN6XqoLwhsbwpcb6Oty98wPrTMfdGOw7VQYltJbp5I2GtNpXXL2ABAAAC1p/X8BXCOm1d+21+5a1+dfDlxtdjoh2wNnRMwCpfxysB65ONr9XjCbjh99pfexSwavcVwoaABQAACFh/Xl/eFWGoHk9fTaRGXBraWotwcrt1I86lNXnPzPvvZiEDVtmh/HMdSk/HrfwzVl05OH+0dyjG0ioRqz67ktcnYAEAAALWn9eTt0ccqsvTVwPtr+VV3mzEteY/xJme8vTV+o4LWB/mP4vRnkZ80Xyn/bNW3cXmcBxIywSs+mxPXo+ABQAACFh/uR3iUPXfPFgOoZeD6HXxeePVOJuemNfj7YsXsNbHwfR4fNR4pR5Pw12/GccGX4oP0pPiUD22wxF3AABAwPrp9gpE1Q9Y5Xh7a/j9ehxvP346Pk2Pxbm0dkF+PwsfsMr/nmfjYHo0pvPPWgfntr3VvoVVbngJRJXfXgELAAAQsH66nXmzIlF149XZtDrO974Yt662ahFLyp2ucq9rvo+3L2bAKiFoJPXFiaEttfgzmRz7OEbTQPstigJRpTebt1PAAgAABKyfbmXetFBU3YA1kZbHteb+WoSS8obE8qbEcrNroX5HixGwykoMKlGoxKE6KLGtRDdPYVV603krBSwAAEDA+umW5LWEomrus/RUXBh8uX3HqA6+2ran/XXHhXr6ajEDVglB5Wt55et5dTA9fjJGU8NTWNVeK2+JgAUAAAhYP11/3pRYVMVtaMegEoXqoHzF8cLgb9vRbSF/T4sVsMrKYfQ/DP4mvqvJ1ztPbnojRtMj3khY3U3l9QtYAACAgPXTrRCKqrp17a/jla/l1UE5Mv/901fPd03AKiGoPIV1efi9WvwZlc9ZPq+AVemtELAAAAAB66dbmjciFlXv6atyCL0cRK+Ly5vejDNpZdcFrPJEU3myqQ7Kk2JHe4diLK0Ssaq5kbylAhYAACBg/fy2C0ZVfPpqIGbGT9UijJTPWT7vQh5vr0bA+tMx90b7xlQdXGwOx4G0TMCq5rY/TLwSsAAAgE4PWE3BqFpvHixPMpUnmuriy42vx0Q7YG3ouoBVjrmXgPXJxtdq8WdVXghwbPCl9v0uwahyawpYAACAgHXn7RWNqhWwyi2pclOqFkGkdSPOpTV5zyzK72uxA1bZofzzH0pPx638u6iD8ubEcgurxDfRqFLbK2ABAAAC1p23M29WOKpGvDqbVsf53hfbb/WrvNmIa81/iDM95emr9V0bsD5M62K0pxFfNN9p/06qbnLs4xhNA+2vP4pGldls3k4BCwAAELDuvJV50+JRNQLWRFoe15r7a/P1wc8br8bZ9MSCH2+vVsBaHwfT4/FR45Xa/LmdGNoSI6nPU1jV2XTeSgELAAAQsO68JXkt8Wjx91l6Ki4Mvty+U1QH3/zz/xUTqS/OplXtz74Y+5e8s3mH0pNxMO+DRdpY+usYScvj6/w7qYPp46fz7+vR+H16Vjyqxlp5SwQsAABAwLrzGnnfCkiLvQ3t21dfbdtTiwAy++2/xqW//Z/i0+X/MS70/zbvN4uyL/LO5/2h/2/iSN6xRdof+l+Og8sfi//6t/9j+3dTB+WJsfLkmDcSVmLf5jUELAAAQMC68/ryrghIi711cSYNxjdj4/X4Dtqt2/HdhUsxOzUTt6duLPpuVWC38+9ipvxO8u+mDvfLvtj1dhxIywSsauxKXp+ABQAACFh3Xk/eHgFpcZ++mkiNuDS0NWDB3iB5/WYc7d0YY2mViLX425PXI2ABAAAC1i9vh4i02E9fDcTM+ClVhQV1cff+9hsUy5sURaRF3Y6HjVcCFgAA0A0BqykiLd6bB8+klXF505tqCgv/TdDWjTiUns5bIyIt7poCFgAAIGDdffuEpMULWOV4e2v4fTWFRfHJxtdiNDXiSP77KCQt2vYJWAAAgIB19232JsLFiVdn0+o43/ti3LraUlJYFNPjJ9sB63BaKyQt3hsINwtYAACAgHVvmxSUFj5gTaTlca25X0VhUZ0Y2hIjqc9TWIuzybmIVwIWAADQDQGrP29KUFqMp69eaL8NDhb1Kazjp+NgejR+n54VlBZ+U3n9AhYAACBg3X0NXyFc6K2PiZ6B+Hr3u+oJlfBR45U4mB6PD/PfTVFpwb9C2BCwAAAAAevu68u7Iiot3M6lZ/LWxO3WDeWExTcb8cWut+NAWiZgLfyu5PUJWAAAgIB19/Xk7RGWFmobYiINxJcbXxdOqIzyVdajvRtjLK0SsRZ2e/J6BCwAAEDAurftEJYWauviTBqImfFTqgmVcnH3/hjtacSH+e+osLRg2+GIOwAAIGDd+/YKSwv19FUjLg1tVUuonFutG3EoPZ23RlhauO0VsAAAAAHr3rczb1Zgmu/bV2vj0/RYzBw/rZZQSZ9sfC1GUyOO5L+v4tK8bzZvp4AFAAAIWPe+lXnTItN87vk4m56IzxuvqiRU1vT4yXbAOpzWCkzzv+m8lQIWAAAgYN37luS1RKb5DVgTaXlc2/VO+61vUFUnhrbESOrzFNb8r5W3RMACAAAErHtff96UyDSfT1+tjvO9L7Tf9gaVfgrr+Ok4mB6N36dnRab53VRev4AFAAAIWPe+FSLTfG59TPQMxNe731VHqIWPGq/EwfR4fJj/7gpN87oVAhYAACBg3fuW5o0ITfN1vP2ZvDVxu3VDGaH6ZiO+2PV2HEjLBKz53UjeUgELAAAQsO5v28Wm+diGmEgD8eXG14URaqN81fVo78YYS6tErPnb9rmKVwIWAADQTQGrKTbNx9bFmTQQM+OnVBFq5eLu/THa04gP899hsWle1hSwAAAAAev+t1dsmo+nrxpxaWirGkLt3GrdiEPp6bw1YtP8bK+ABQAACFj3v515s6LTXN6+Whufpsdi5vhpNYRa+mTjazGaGnEk/30WnOZ0s3k7BSwAAEDAuv+tzJsWnuZqz8fZ9ER83nhVBaG2psdPtgPW4bRWdJrbTeetFLAAAAAB6/63JK8lPM1dwJpIy+Parnfab3WDujoxtCVGUp+nsOZ2rbwlAhYAACBg3f8aed8KT3P19NXqON/7QvttblDrp7COn46D6dH4fXpWeJq7fZvXELAAAAAB6/7Xl3dFfJqLrY+JnoH4eve76gcd4aPGK3EwPR4f5r/b4tOc7Epen4AFAAAIWPe/nrw94tNcHG9/Jm9N3G7dUD6ov9mIL3a9HQfSMgFr7rYnr0fAAgAABKwH2w4B6mG3ISbSQHy58XXhg45Rvgp7tHdjjKVVItbcbMdcxisBCwAA6LaA1RSgHnbr4kwaiJnxU6oHHeXi7v0x2tOID/PfcQHqodcUsAAAAAHrwbdPgHrYp68acWloq9pBx7nVuhGH0tN5awSoh98+AQsAABCwHnybvYnwYW5frY1P02Mxc/y02kFH+mTjazGaGnEk/30XoR7qDYSbBSwAAEDAerhNilEPsufjbHoiPm+8qnLQsabHT7YD1uG0Voh68E3OdbwSsAAAgG4LWP15U2LUgwWsibQ8ru16p/3WNuhUJ4a2xEjq8xTWg28qr1/AAgAABKwHX8NXCB/06avVcb73hfbb2qCjn8I6fjoOpkfj9+lZMerBv0LYELAAAAAB68HXl3dFkLrfrY+JnoH4eve76gZd4aPGK3EwPR4f5r/7gtR970pen4AFAAAIWA++nrw9gtT9Hm9/Jm9N3G7dUDbofLMRX+x6Ow6kZQLWg21PXo+ABQAACFgPtx2i1P1sQ0ykgfhy4+u1ahC3p6bybnTEbnXAvst/HrM3btfn78/1m3G0d2OMpVUi1v1vhyPuAACAgPXw2ytK3c/WxZk0EDPjp2oTH8pXHT/t/w9xof83td4Xeefz/tD/N3Ek71iNd6R/QxwefDYmf/9/1+bv0cXd+2O0pxEf5v8bEKXua3sFLAAAQMB6+O3MmxWm7vXpq0ZcGtpam+hw62orzi9/Mc6kfxefpadqvX/JO5t3KD0ZB/M+qPEOpf8u/jGlOLft/6jP36XWjfy5n85bI0rd+2bzdgpYAACAgPXwW5k3LU7dy+2rtfFpeixmjp+uTXRoDb8fp9Ov2m9OrPvv/0L7z+C5OJJ+Hb/vgLhRQtYfBn8T311t1ebv0ycbX4vR1Mh/Bs+JU/e26byVAhYAACBgPfyW5LUEqrvt+TibnojPG6/W6vbV5U1vxpm0UsCq5NbHP6W/isvD79Xm79P0+Ml2wDqc1opT97ZW3hIBCwAAELAefv15UwLV3QPWRFoe13a9034rWx18MzYeZ9Jg+25XJ/wZdGLAGk2PxMlNb9Qqip4Y2hIjqc9TWPe2qbx+AQsAABCwHn4rxKl7efpqdZzvfaH9Nra6+Grbnj9+fXCDgFXRlSeZRtNATI59XJ+nsI6fjoPp0fxn8KxAdW9bIWABAAAC1sNvad6ISPVLWx8TPQPtt/nV6Xj7hcHf/vH4+XMCVkVXnmIqXyM8t+2tWj2F9VHjlTiYHm8/RSZQ/eJG8pYKWAAAgIA1N9suUv3S8fZn8tbE7dYNx9sFLMfcZyO+2PV2HEjLBKy7b/t8xCsBCwAA6NaA1RSq7rQNMZEG4suNrzveLmA55v5H5au0R3s3xlhaJWL98poCFgAAIGDN3fYKVXfaujiTBmJm/FRt4kKnHW/vhoBVx2PuF3fvj9GeRv7864SqO2+vgAUAAAhYc7edebNi1c89fdWIS0NbaxUWOu14e+cHrHoec7/VuhGH0tN5a4Sqn99s3k4BCwAAELDmbivzpgWrH9++Whufpsdi5vhpx9sFLMfcf8YnG1+L0dRof37B6iebzlspYAEAAALW3G1JXku0+uGej7Ppifi88WqtgkInHm/vhoBVy2Pu2fT4yXbAKk+QCVY/WStviYAFAAAIWHO3Rt63otVfBqyJtDyu7Xqn/dY1x9sFLMfcf96JoS0xkvo8hfXTfZvXELAAAAABa+7Wl3dFtPrh01er43zvC+23rTneLmA55v4LT2EdPx0H06P5z+RZ0eovdyWvT8ACAAAErLlbT94e4epHT1819zveLmA55n4PPmq8EgfT4+0IJ1z92/bk9QhYAACAgDW32yFcfb9yAP3C4Mu1evqqk4+3d1PAquUx99mIL3a9HQfSMgHrL7djvuKVgAUAAHRzwGqKV8+1n14qTzGVp5kcbxewHHO/NyX2Hu3dGGNplYj15zUFLAAAQMCa++0Tr55r348qd6TKPak66eTj7d0WsOp6zP3i7v0x2tPIn3+dePX99glYAACAgDX32+xNhBtiIjXi0tDWWoWDTj/e3o0Bq47H3G+1bsSh9HTeGvHq+zcQbhawAAAAAWt+Nunpq4GYGT/leLuA5Zj7A/hk42v5czfat7y6PGBNzme8ErAAAIBuDlj9eVPd/ObB8hW88lW8Wj310gXH27sxYNXymHs2PX6yHbBKgOvygDWV1y9gAQAAAtbcr9HdXyF8vv0UUzmG7ni7gOWY+4M7MbQlRlJftz+FVb5C2BCwAAAAAWvu15d3pVvj1dm0Os73vth+osnxdgHLMfeHeArr+Ok4mB7Nf0bPdnPAupLXJ2ABAAAC1tyvJ29PtwasibQ8rjX3O94uYDnmPgc+arwSB9Pj7Z+hSwPWnrweAQsAABCw5mc7ujFglftRFwZfjtvXbzreLmA55v6wZiO+2PV2HEjLujlg7XDEHQAAELDmb3u7L2BtaEegEoMcbxewHHOfGyUGH+3dGGNpVbdGrL0CFgAAIGDN33bmzXZXwFrX/hpe+Tqe4+0ClmPuc+fi7v0x2tPIP8O6botXs3k7BSwAAEDAmr+tzJvupqevJlIjLg1trd2NoW463t7tAauux9xvtW7EofR03ppuC1jTeSsFLAAAQMCavy3Ja3XX01cDMTN+yvF2Acsx93nwycbX8mdvtL8K2UUBq5W3RMACAAAErPlbf95Ut7x5sDzBVJ5kqptuO94uYNX0mHs2PX6yHbDK5++iP6+pvH4BCwAAELDmbyu6J4g8345A5ZaU4+0ClmPu8+fE0JYYSX3d9hTWCgELAAAQsOZvS/NGuiFenU2r43zvi+0g5Hi7gOWY+zw+hXX8dBxMj+Y/s2e75c9qJG+pgAUAAAhY87vt3RCwJtLyuNbc73i7gOWY+wL4qPFKHEyPt3+GLviz2j7f8UrAAgAABKz0XLPTQ0j5+t2FwZfj9vWbjrcLWI65z7fZiC92vR0H0rJuCVhNAQsAABCw5n97OzuEbGh/Ba8cQne8XcByzH1hlFh8tHdjjKVV3RCx9gpYAACAgDX/25k327khZF37KabyNJPj7QKWY+4L5+Lu/THa08g/x7pO/jOazdspYAEAAALW/G9l3nSnPn01kRpxaWhr7f7lv5uPtwtYnXHM/VbrRhxKT+et6eQ/n+m8lQIWAAAgYM3/luS1Ovfpq4GYGT/leLuA5Zj7Ivhk42sxmhrtJ8k69M+nlbdEwAIAAASs+V8j79tOfPNgCUAlBNVNtx9vF7A65Jh7Nj1+sh2wyi2vDv3z+TavIWABAAAC1vyvL+9KJwas8hW88lU8x9sFLMfcF8+JoS0xkvo69SmsK3l9AhYAACBgzf968vZ0Wrw6m1bH+d4X28fQHW8XsBxzX8SnsI6fjoPp0fxn+Gwn/tnsyesRsAAAAAFrYbaj0wLWRFoe15r7HW8XsBxzr4CPGq/EwfR4++uQHfbnsmMh4pWABQAACFjfr9lJ4aM8vXRh8OW4ff2m4+0ClmPui2024otdb8eBtKwTA1ZTwAIAAASshQtY+zonfGxoP8FU7kg53i5gOeZeDSUmH+3dGGNpVadFrH0CFgAAIGAtXMDa3DlvIlzXjkAlBjneLmA55l4dF3fvj9GeRv451nXSGwg3C1gAAICAtXABq2yyE56+mkiNuDS0tXb/cu94u4DV6cfcb7VuxKH0dN6aTvnzmFyoeCVgAQAAAtb368+b6oynrwZiZvyU4+0ClmPuFfTJxtdiNDXaIa4D/iym8voFLAAAQMBauIDVqP9XCJ9vHz8vR9DryPF2Aavjj7ln0+Mn2wGrfBWyQ75C2BCwAAAAAWvhAlZf3pW6B6zyBFN5ksnxdgHLMffqOjG0JUZSXyc8hXUlr0/AAgAABKyFC1g9eXvqHK/OptVxvvfF9i0px9sFLMfcK/wU1vHTcTA9mv9Mn637n8OevB4BCwAAELAW9oj7jjoHrIm0PK419zveLmA55l4DHzVeiYPp8fbTZDX+c9jhiDsAAMDCB6y9dQ0dJf5cGHw5bl+/6Xi7gOWYe9XNRnyx6+04kJbVPWDtFbAAAAAWPmDtzJutX+jY0A5A5Wt4jrcLWI6510OJzUd7N8ZYWlXXiDWbt1PAAgAAWPiAtTJvun6hY137AHo5hO54u4DlmHt9XNy9P0Z7GvnnWFfH3/903koBCwAAYOED1pK8Vt2evppIjbg0tLWW/wLveLuA1c3H3G+1bsSh9HTemjr+7lt5SwQsAACAhQ9Y/XlT9Xv6aiBmxk853i5gOeZeQ59sfC1GU6P9c9Tsdz+V1y9gAQAALHzAWuHpK8fbBSzH3BfS9PjJdsAqT5LV8He/QsACAABY+IC1NG+kLnHjXP4X3k/TYzFz/LTj7QKWY+41PeZenBjaEiOpr25PYY3kLRWwAAAAFj5glW2vS9w4m56Ii3/9P9TyX9i/+cDxdgFr7o+5/z+b/pda/t/DzXP/b3ywdFX+M/7v6/R7376Q8UrAAgAABKy/XLMucWMiDcSV/+3v4/bU9bwbtdpX//P/HqfTUsfbBaw5Peb+u/Tv4sr/+UHcyn/H6rTZf/0uPlrxSnyQ/ts6/c6bAhYAAMDiBay99fkK4bq40Hg5LvSX/aZWO7/khfwz/FqkErDm9Jj792/0eyqO9f9Nvdb3N/FhT/k51tXpd75XwAIAAFi8gLUzb7YuR9zPpWfbb/Gr28rn9vSVgDUfEat8Da8cda/bvo9X6+vyu57N2ylgAQAALF7AWpk3LZ6YgGV2x03nrRSwAAAAFi9gLclriScmYJndca28JQIWAADA4gWsRt634okJWGZ33Ld5DQELAABg8QJWX94V8cQELLM77kpen4AFAACweAGrJ+/vxRMTsMzuuL/P6xGwAAAAFi9glf0X8cQELLM77r8sdLwSsAAAAAHr5w+5/13eiIhiApbZv20k7+8W44C7gAUAAAhYv7wSsv5ZTDEBy7p4//zHcJUWcwAAAALW3dfM+1pUMQHLumhf5zUXO1wJWAAAgIB1fxsQskzAsi4KVwNViVcCFgAAIGA9WMj6R4HFBCzrwP1j1cKVgAUAAAhYD38fy6F3E7Cskw60p6oOAABAwHLo3QQsc6A9CVgAAACdG7AcejcByxxoF7AAAAABqzZz6N0ELHOgXcACAAAErNqELIfeTcAyB9oFLAAAQMB6zqF3E7DMan6gXcACAAAELCHLBCwTrpKABQAAIGDd6/6z+1gmYNkC3Ln6z50SrgQsAABAwHLo3QQsc6BdwAIAABCw7hqyxBoTsOxh17HhSsACAAAErGrsP7mPZQKWPcSdq//UyeFKwAIAAAQsh95NwDIH2gUsAAAAAcuhdxOwzIF2AQsAABCwHHo3AcscaBewAAAABCyH3k3AMgfaBSwAAAABy6F3E7Cs6w60C1gAAICA5dC7CVjmQLuABQAAIGA59G4CljnQLmABAAACljn0LmCZA+0CFgAAgIDl0LsJWOZAu4AFAAAgYDn0bgKWOdAuYAEAAAKWQ+8CkIBlDrQLWAAAAAKWQ+8mYJkD7QIWAAAgYAlRDr0LWAKWA+0mYAEAAAKWQ+8mYJkD7QIWAACAgOXQuwlYDrSbgAUAAAhY5tC7gGUOtAtYAAAAApZD7yZgmQPtAhYAAICA5dC7CVgOtJuABQAACFgmZAlYJlwJWAAA8P+3cwcnCANRFEWnI0kN4s5uszQbwTIES7AFyUJwEdFoNH/mnwOvibt4IGDVG7J6AUnAssn1wpWABQAAIGA5ejcBy0G7CVgAAICAZbND1iAoCVhJNwhXAhYAAICAVc/8YwlYGX+uxCMBCwAAQMBy9G4CloN2E7AAAAAByxy9C1jmoF3AAgAAELAcvZuA5aDdBCwAAEDAMkfvApY5aBewAAAABCxz9C5gOWg3AQsAAEDAcvRuApaDdhOwAAAAAcscvQtY5qBdwAIAABCwzNG7gOWg3QQsAABAwDJH7wKWgOWg3QAAAAQsc/QuYDloNwELAABAwDJH7wKWg3YTsAAAAAHLHL0LWA7aTcACAAAQsMzRu4DloN0ELAAAAAHL0bsJWA7aTcACAAAELHP0LmA5aDcBCwAAQMAyR+8CloN2E7AAAAAByxy9C1gO2k3AAgAAELDM0buA5aDdBCwAAAABy4QsAUu4MgELAAAQsKyd7Vv/x0oWsMafq71QYwIWAAAgYJmjdwHLQbsJWAAAAAKWrRiyBKy6JlyZgAUAAAhYlm7blv6xGg5Y48/VVpQxAQsAABCwzNG7gOWg3QQsAAAAAcscvQtYDtpNwAIAAAQss6RH7w0ELAftJmABAAACllnLR++VByzhygQsAABAwDJr/ei90oDloN0ELAAAQMAyy3L0XlnActBuAhYAACBgmWU7eq8kYDloNwELAAAQsMyyHr0HD1gO2k3AAgAAELAs+9F74IAlXJmABQAAIGCZo/eQActBuwlYAAAAApY5eg8ZsBy0m4AFAAAgYJmj95ABy0G7CVgAAAACljl6DxmwHLSbgAUAACBgmaP3sAFLuDIBCwAAQMAyR+8hA5aDdhOwAAAABCxz9B4yYDloNwELAABAwDJH7yEDloN2E7AAAAAELHP0HjJgOWg3AQsAAEDAMlsmZC0csIQrE7AAAAAELLPJkNUHCFi9cGUCFgAAgIBltvjR+wIBy0G7CVgAAAACltnskDX8IWANwpUJWAAAAAKW2Td76x/rg4B1/7kSPEzAAgAAELDMfn/0PiNgOWg3AQsAAEDAMvv/0fubActBuwlYAAAAApbZOkfvLwKWg3YTsAAAAAQss3WP3p8ELAftJmABAAAIWGYxjt4vpbs+BCwH7SZgAQAACFhmsXYp3e5cusOpbA7HstmJGCZgAQAAAAAAAAAAAAAAAAAAAAAAAAAAAAAAAAAAAAAAAAAAAAAAAAAAAAAAAAAAAAAAAAAAAAAAAAAAAAAAAAAAAAAAAAAAAAAAAAAAAAAAAAAAAAAAAAAAAAAAAAAAAAAAAAAAAAAAAAAAAAAAAAAAAAAAAAAAAAAAAAAAAAAAAAAAAAAAAAAAAAAAAAAAAAAAAAAAAAAAAAAAAAAAAAAAAAAAAAAAAAAAAAAAAAAAAAAAAAAAAAAAAAAAAAAAAAAAAAAAAAAAAAAAAAAAAAAAAAAAAAAAAAAAAAAAAAAAAAAAAAAAAAAAAAAAAAAAAAAAAAAAAAAAAAAAAAAAAAAAAAAAAAAAAAAAAAAAAAAAAAAAAAAAAAAAAAAAAAAAAAAAAAAAAAAAAAAAAAAAAAAAAAAAAAAAAAAAAAAAAAAAAAAAAAAAAAAAAAAAAAAAAAAAAAAAAAAAAAAAAAAAAAAAAAAAAAAAAAAAAAAAAAAAAAAAAAAAAAAAAAAAAAAAAAAAAAAAAAAAAAAAAAAAAAAAAAAAAAAAAAAAAAAAAAAAAAAAAAAAAAAAAAAAAAAAAAAAAAAAAAAAAAAAAAAAAAAAAAAAAAAAAAAAAAAAAAAAAAAAAAAAAAAAAAAAAAAAAAAAAAAAAAAAAAAAAAAAAAAAAAAAAAAAAAAAAAAAAAAAAAAAAAAAAAAAAAAAAAAAAAAAAAAAAAAAAAAAAAAAAAAAAAAAAAAAAAAAAAAAAAAAAAAAAAAAAAAAAAAAAAAAAAAAAAAAAAAAAAAAAAAAAAAAAAAAAAAAAAAAAAAAAAAAAAAAAAAAAAAAAAAAAAAAAAAAAAAAAAAAAAAAAAAAAAAAAAAAAAAAAAAAAAAAAAAAAAAAwIQb8LztFQGoq4sAAAAASUVORK5CYII=;" parent="D9KQNR6pZfDjxS4KEUd9-6" vertex="1">
          <mxGeometry width="155" height="90" as="geometry"/>
        </mxCell>
        <mxCell id="D9KQNR6pZfDjxS4KEUd9-5" value="&lt;h1&gt;FRONT END&lt;/h1&gt;&lt;p&gt;Angular Framwork&lt;/p&gt;" style="text;html=1;strokeColor=none;fillColor=none;spacing=5;spacingTop=-20;whiteSpace=wrap;overflow=hidden;rounded=0;" parent="D9KQNR6pZfDjxS4KEUd9-6" vertex="1">
          <mxGeometry x="172.5" y="10" width="190" height="80" as="geometry"/>
        </mxCell>
        <mxCell id="pCCqeaRGn8NaipejfHK0-4" value="" style="shape=image;verticalLabelPosition=bottom;labelBackgroundColor=#ffffff;verticalAlign=top;aspect=fixed;imageAspect=0;image=data:image/png,iVBORw0KGgoAAAANSUhEUgAAAqYAAAEZCAMAAABy0ReQAAAANlBMVEVHcEx7e3t8fHx9fX0xMTF+fn59fX1UVFRbW1sxMTEwMDAwMDAxMTExMTEvLy8xMTF/f38yMjJuEUERAAAAEHRSTlMAV4WutezSESjXeVr46zuY+tQb8AAAIABJREFUeNrsXduSqyoQjYnKHSb//7NbIygql6bBmewqOS+nak/ktli9uoHm8bjLXcoL6V7j8PMzjK+O3KNxly9F6Y9Xbpze5TtL58O0u8fjLl9Znj5Mn/d43OUry+jDdLzH4y5fWQYfpsM9Hnf5eg/q9qHu8p2F7mFK7xG5y7c7+rerf5cbpne5C7I89zC9I1J3+cby2sP0dY/IXb6wjDdM7/L9ZdjD9A6c3uULyyEedUek7vIXKHx2RR5U1ofqnjeO73KBG/8iBTY/s6tPXncw4C6NC1ncoyFBqN3PqaT+egH1eO+o3qWdwR+yhpyMZ5iOeYEw3ob/Lq241LPnMcP//AmUZ8LgO5xewqeEUM17pt5LUcxwTb+CuQkVU8OkbRjrjaCENOx3qmYtTM9szbKmarL/1tSPZYAJ6lOCG+Z9Ct2u/TlSCkZpxOzT8eLw6oyEGQgODMv/qJ7reO+JsEWX13b+oQ5/ikxrR72PhRmhIdOyVENjGJzr5DzS/LnmdXGswyKnqovNGZkRqt7++C7/K3tgR7ah0xNCT436YHVCPcJ78uOhHRilQT7thms3VbVhZygsIzn1PjaMpLd/1hcOj/sh8wHCl08dV0IfbNiH2kR+fpcJFaGFMjGbWr7NwyupVzJYsZwMTdHCpAG4l3bEwT0yUcuXiht2wt7R8JPXT7QA/rapMab9Oz6KM6fGgErcsuZlFXI7rPyRgalm72TDBA6mRDCP2WSo9UIla5bwlUl4cnCX9SpgbMIy35FSGoIm0w+h7hiwG38SZdyR73MAK1gUSLnKDmMfMUza/lSKIu6287Yf0RNMie5z7ZJ9xmIGYDrZ8kOH+Zm0sjVPaxcEVLsiAB3JT5SRkE8pMDeHIk0zUJeb+ISmQboAdfFeSBcCacMTf5NV9TvPJjW+lH5nXZQJT4pjClVgbCwnSEYfKZgS7k2wWtsFbFgUptocV+WJTenuT+Q2JDsBInvA2tS70Z2/FenHm3GSIeU93pk3InthVMD0MZM+jOPwAyyJv23mQxGfWdjieX7+I7M76S9fFgQiMY5vSYHEWABGHymY0k3OLe3aNUx5M68LYEpNwHTw4zKS3ioQftWU7tZO1sDuqNR2w+uH9r+WMdf+XNhW2S/Nnj/dsQ2YNAgYjJgytJKmK8om+R1S35PJkum+b/IU2iZLwCdduYfpKsNU0BxODVOrHksY/gNMPXE3eUITRfO56P2X1UbhIfs50fE6JhmcbtVJFtEI/tcSQ+hPVMTj8r1NpmvMfqvSKr6/SbDYKPqdl8FhdFOhgPLUytkzd+xgun417rpu1lvG53cHU890qFggaPubqWqSqzkd41hROukDmvANViqIop6sXMq4Tgk4VYrT53UobeU/bYyVEngbvYQ9fvfPihagNCASfJi6liU9JLK1n0NgurkgKhoN3vCQrHqVnEeBvcMfAzo1lMvMeluDBSbtMq6+n2RQ4/a6CqXNhCkDSpnVsMvgHzpKhoyM+1QA0x5M7QTLbJxrBZUAwNQATLUBmvMVODIuyt24ANavW7yRmaCp0FlY+R8D0PEZGa9BaautUtchiGNoUsPogvWAkB2JCdMdTK0QAwQTN6YXOZhuzp7Ifw5QtfOOor126gbkd6/mI7UbIkGhJrd0oTFCeokbNTQSpm7aJMT3IUImNA8Fy1MLg2CdG0wXLMPklUNL5K9XmG7dpdnmvXtI1c6+RhSHqxAYHXKgDm41gLnU1y3gsNQlblSriKnlNWjfwyH5ozzNIJ6qRPRqhennr1KiL7hGwsZ3haltYlImEseltKRmGTbqtq/g2JC28QcSVQ/QrT5nJsFbLq/vdZ+ognPpgiKV2G9ySi0tTxPC1IPpYuLArurKpzwFUwuppDFfTxpAacitEBZfdQXbyCb2AysIwM1yzAwOZQOip+Oz6yidA7Td8zn+WsTUTQl8B9jakjDLWQsnk99z1ihCMA6mH32hCnZfrSAJ+ncOpiZPbVbYSPgCWffTeNSBYvD5sqA/g2sxBKrg3IRJOLzlUanhlMecdK/hN01+T4qRLc0DKU+FSsoMC9OlGl7SMBMnNQvTRbKkDbDtQskCcV0KLV1ZeibHOY46PDAFq8epFwP+wZDatg9vJqQ2/FtdkHbCqcgdc2ERmgqpxE0TUeltVQvTGVGSoSJrIgrTHgBAa6VNScUkKhtpYqyStvq8ik1RgMn7iXpU0+mYuvQ0Xq1MFzJVHEXBJqVdoyjMKj8LU1N4kMUjtYBvu8D0E0/LxMuIKlSAO91Iwh5REQ9Y6X5spmXZouVjHV5w7RFnf8hdjB4u3SV1Mqjwc9aFVOlDKCYd/9JpNvts1ZtCBW4/HqBLiyKZFzilei7jKeliUWWbcNovsJ3jiAmG6xfQuefAwIeDBK3ItDBisWctaZJ+fDgW4GJWItOo+b6EKr60omNS27svRCCKxhSPJQuH4jAwFcGGWpgKBKHUiVOQ6X5eKE1Zudrxeh8LadJEpN35xAme5Nsh7PIexbhwO6IkICu3fIG4OANvAFMaFAoYmD5KhcJYbPATeqHRExIaZ982xhNJiRiYHCdMUzJjgymiYTEyXGGaAYyjn/J4XySOpEvjUXMJul0Yox++WFYCU/hmZzdcBFMsmU5DlvaGo/K0f+dXBq8g05VOSQSmOTK1sUnxwC7dIw8TRCjFtpbWe/qW4+G/GZBcGuTTNkafIpXpNmQs7auevu02ZsUDAlNUw6w6FRGYZmjNxSwxmyeROJJEGIYwTDmibYUwJVXx+e4SF6o8XHy0ZdHRD8vTVZhC/LrswYAipwF49XVZX9Jgao7EkRYZX8aB/HO1iQSZnpXdivx8CSwUaF3g83lBQMrqxB637crSsx469QwRph5McQ1zfEjDMKVt44whoxy82iV1/YRphtXNWD4sPtE8tt8rXRhP8kfFnMR3idwhFF4mTD2YIhv24Rx5lIiO3WEGBllzUJzSmkUX4hWlr4PpWHlw5HB4pYUPtRAettMi4xqsmVDE/hf5q/z8/Ua7MSvnHGthMOj3yKCpH2UQwYGQvB6nHJdbBk2mCDJ8Nrf6i7pWpAbkCWY8ylOYMN0mgyHXDwnKEQYKcRGJDYR5lRw66E6SK149Y4QVnNbGfH+s58Kx9Q0Tjo/6bKTFc0B25g4oTD2YYleiCRlZBooLaUz0KBcxWg+N1fOpeF+K01cDZdk1vq9ncYNd43YjymTp2lZhwBxpfY6+ai6PO2QMFMzhdTJShJWtkO9G1npVUkxc4Ec9mwTnx7aHpKwF0XUj1ued7o/KFBImTB+4g3Rnn0WFYJoDoKlzpW2U7twjtV2ur4PXel/03TcH6rPNkeau7cloK/jRnTX5iV8vk2jN4N47f9dEIB5uq1GfYZq98sqqDIzbm6NxnMrCjI6xoNQn6Qlv6UqRZ6P7IaTtoVNdeGI2HHHqIWc334wVRGU4IrdfwF0XIQBm9qBUXc1xAyUkPJcZ0O4D0/dBOXBslgXiVXKkGiik+kqYZhydfXZQmPPOa6ODIdEN4kmqaiJhK0xDv99n5JszAmHzxHuZheazjoZrXWv+aehYMxpbXSgHJZr4eZ0CdFt3OjOmfvJuUdAwibdooZ6BjgdrVRMJS3ulhxSAk802XKD6SMQ+6eqcS1OgoEpo1z1fkSsiaOyTyDWV13wptfir9igRwxYFIkjfRvESlOHViLUTaJhKhR6T5PW8U0rfORWgwUCVnFJYT5/qecnyIt0znbm0YgNpTGdBfXakGKa1JUs9lJWey2sE074cpkI1GZP4QYdg6v0ZYLSQZggPpt6fUQ/6ErkyD0Q+K0VBZ9nvwHQ78CR+C6Z6MRPlMOXyWphOTePhly4++StpGaOa4HMTks1iIoeD7kqYPltm7Ol/iU3VH7HpV8L08+ROGKnz8yNFsdBDkum9Ws0ogFdLJJWvgde3sSnxqjHfzqbiF2C6QNUwJeX5UaP8UxcnFpjoWcriFyLyaXUqYrI0n+KnlE1ZX1ey7xlgPf2/Y1NVOSSwYOb8Pl7PzgpTlm8vzU+i9ez8eFUiofTwtzAdStkUH0QviFqh4qZ/pk37X3sKdn4Wkp8kJuhllBM05k+d3lljsezfPy29nHL/7Kdur6b5PLhDUn3xLtRfsKn4ZZjaQSLi8KyKRDaBEMqPD/vob4TpUApTfukErE/qlO/p18JU9liYsr94WHvyhnwqrNgFJWL30FT4OPb/Y/RN5S4UJLi3ZUAvPiGl/sNdqLrR2gWrWI2Zo36wSoYM///jQhn8HcoyYSpx503/AKbiL2G6RABk8ctjMaSy6OOBfx+QKgjK1h49yY8UC57eJ0CY4qeJRU9ICUiMV4nH35XtZb9a7eEFWQQCSRUwbRreFzWXKOHC1Il4Apan1Qf5/meYrk+Slj3hHIb8+miVLvdyLt2FKujZcshdXjbexwSRTqkCb5bK2sPJGhF+Y9e7lRB0NTH7PqEGknl1z9ffHD15lR09sbuYVwkxFzE939NXsHv6aNWs45dMcjDtgc9aXVsoe7cSZEKmzlN8DvLFTko1Psg3IA/ykUsjUu4Rml3WE1aS9QQ9STwk7WAwNfDo7m/gtJ5CHJ+mVx4NvUnS8lj0iD8WTUzdBc4SYboL+LwVJIeURLsQwdSPMJgKfKKztnZftYoW2onIDubXXjJBJXjzVmD/OQgcWfAusKKDa1tBMvLVppPAwJTWxcL4Z0h4O3A1WC8C6pB+6ZU9l/VE4xe8jAXhY68Wpt8t28MUnZxHxZPzZD9Z50OxzzEnv5LIjWigsvfnBr0bA84x2OjmcuML0IC8JQAuTvsAJPovgGzR2IYFVx8QpqYmSkfP0R+FvGS+zI2/UtEwhSe3+cp0Es6yIP3aRFKw9R0+HQ0AKEDu/ZrEkadn5IEwFTVWX5xlIDZlx9m/RZ/eKrjofkFyngYvQ5kKDUhkfN5TAVL3EGRik6kuDa8OZ2oHwtRG6XirZY+OppxYoOQ17H2z4MLjglRnLUKbFds9iWNMNpVtRA7RPidP65KaR94QAsK0xncJiSiDja3x4xBqrCdh/QEMFX5F4kh3GrTH/9TE6Sxqs9dEfTQHUwxYSOR5JughcKtsUU9EBIDEww9WQFebN77/2LvSBeVBGPgBcnjvvv/LflZ7l0CgtK44+btWXTvNRTLjLpmOOQWmf5GGtz/PLCq4E1f57tgP7zYC05wvdv4NCe6cmS4xJy/utLLsMjHMiAsLb/qqxi7pXywJpn+Q1Lx/Qo+5/7oPiozW6D3ccVojX9Z6+WUNxIVpPnH42defuOVqGi0L+0PmGG77kzAR8fckIgbAZItBWiqkB8/Fex5pF4Fpeuw9hcUgz2y0HTKf3BmMulw3GfVL9thz5qiDS+nd/kXBnR5UqeeSneL8LTkxbX/xSyj5PI1WphP9fEecTknrntlwSy4sCWnd+yXrH2kziNPSKya707SBTb1iin8j+bLh6P2edUsOZGJ6ZbEyE67hNIg1p85G33/DQuUc7N140jz+B36prJsHrmV7f/jnsiIm9yqTK1m6oRjk0G1PgsONbH2yzuyHRMv/wvbY5J4rKef1hAnr3oeM0wV3IIZk7SHrrMLXJe0Qn+bnbVqH4C9K6w684ynJkyMlSTiJ6Sw9vZEwfT1BKbf3dqUhkQDTNnNIUnRon0/Pv3PLOfr1yvT2U2cu3Zmyw9KfFCofKJ74cHBkx6nHHuO9epFoEqae9IwHfe9RZwJMu4OyhBDTufFTYuBIS3S7FciUsH87JlUf/pFmFb2h1qxkjWC7IJfmf5c/uz388vMweyerpG5W4nXv2bVM9/j4gZ3C8dLjnYvTc2gKoXMECSvNZ3+G3/1ml2Sfwn7YiVU+HXGoUhffop7jpVNl5uHUdZOkC3hZdmI6AfXyF+xg2rUweT9xt0FEZBxJVETdo3tl0TnZc7DB1i8ksXE6WRz3If5y5/qUdmmPnSeQ23ah0WZhNtj7I70QJz91B7KX1N1bbkrX/ubLj+0nz16vuLBkFDuoUP9FGmNWl5KwHpH+xefwA8l9gM/0sOPt8vubsK5lgwHGd0Fgi8/4N+2sMEXYTdjpKcN53GhZentMTXK77umBgmlfkkUd/bCTTs3gpcF0eL/ov9NnLzQWXPdmnKrMnkJ8Ev334viU/m6xk9nw6rJWc6RaoTbb9if96eMhDbJrukGG60Ympvy6g0pPB5h2oh2XY1ACaaSZQN69RP7BAafHM++jQw7uduSKjtmBoP8cKu8ayEee3f5u8VNZG6eWavZDnbPWOVpcosCmSjCva5gGb/S/PRBynP+tS0xnpcqJgOnItQTu74jPjk7/UmkyR/6Z/mg7ED+HM5MBp9cQK2TDUhZ5v/7Zjjy77hR/dBcWp+xJNvVvC39KSmK5+0AYdySP8hPnzLpoeLwRMB2dnF78EfNRvwxEdoEeQzqb64ia9Rj96AuLRO2ValPyZSM/EEqKR9IeV6KUesB9+FH4bVbxs4GVDPuPh/Q60cNopDVaawhe78fwb+OOaV2teao1CUvT5Z2eXv7SSH7Mv9jDm/WU3qHFlRzS4fEDcHmpjQyffJsQicaLeDd6eaPjeJu/3fgnDr6fPR9/A/eqoY6+ju8Wv3mlt4CpLkvDOfnnn5JYLzscpsTbPl/Q91JTB4H6IvhEwvTfVKzrmPTFVsF0rjh2PPQfPf3kK0eH1E7lHB5Qpf6RpkSI5K9jpvjRvVqypCcIT1rzs4mZsqwHQ4EUMH/H7pS9FdKnp2cSprwvFqsosijc7Y3Q0ZiIMjBFw61jKnHF388yBawuKeK76mcjK5qezvJPvySMP2/t2tE5JB1dV2rkiJcbu4wvFrsfuUoD52NY3eSawpd7O1xjWilXHujtKfpOl+s9Jd7Kn81MFsbpv9v9QD6n1wMRi1zeENA8PXU0TJ+F6zH5i5WA6QMQ9CdfjqmyI43STgijfGWo5hcJIPWYpg25Tfm0SRn1+u/9OnBPwUIyBL0sU9agvXro2Pr5DwjZr9AXm+Aj/yvaaQk5VFX3c4aKM/EDN5A/palCP7/XhZLsSxSX1FvCVG9DyjWuFpuf77yraEKApsOeR76tET7eTxtn/MmNevMqdXD3eLehMjzkKjg/sXoaRcBsWWlFCuEaNoADr1X/6rNT2gEfbL0J/1hUC3gnok0AI1xbJ/qHpQRgClttnvppOrTvgkA1Ewcu9A5VFGD6hbaUyJGW36+ah3SrSoqhAaYwwp369p9kQr9p7lArdKaA6TvM0EE80rPypp3TJKHGCgowfYeNj0qp1SeZ0LsfB35jAVNYofTURCO079TfxPOIOlEKmL7Vn4bW8kVSp6lNUFWdKAVM31lHhUGVxmvSBH4ta/21ANO3OVQpkhoC0RJeSPsPMIXtncBut4gPmMKK2YYLzoAprJSZjbjMAFNYQVP1Tz4BpnU0Ayo/BAVMP99E9fN5gClgCpjC9jBH9KOsE+o5vK+NUdJZwBT2RrP+MVL7AKnWzzMq3QBVWMAU9kbT3rapm5VWygGmsDeaf450zh+pBGAKe6NJbz9qvtNnAFPYnyn1ezBKk8bVD5jC9quh+kJJ6TmvNGAKeytOm6K+aTyNy3n1DfwRgGlRFGkfS/62H6o2ZosETGstcfbMDp0KE0zAYFNT7wi7S/IeI3ArYLSZd4RdH0wt7gWMtLfw4QCmsLQs8S1rStIs2fwAUxjt194xZGeXZJGAKYxT6O9Z6lu1hKkCTGHxQn/PUt9L2gOYwuKF/p5bnz6OXo3GKYz0ayWpby1zCN/66KE1s9S3Dm63WjQ66WIVFFVDUZd60Cd5UPPT7bM+xrI/BPZ5KJVEKT09W/dVMc+inFXeCKU1bzTAz8vPOYey7YfgltaIUkOhcCqO66GAbHEcr2+sfFbv2sSdovOzSDNaUk6a9kPgUGtFqWe8Yz6otABy7/diOG0B1Lwy6lAFIR4Rc5KPeG86QSmJgqvCiO93l8s5pdnm3KjUCcf9cbYZC/xWEpplEXf6mjicS1DBKjFH+Utfijh2uBNfG+KEniMvHJMlqRhlZBClBqdWFZucQeHV0KHU7XT/99l4iExAngnsMwcE+HRg/sQtPkPi1lblTfUcQ0oqpUhl0cffmxcYfvddLDabyMD/8In6Jx2nViy/LyZUa3an5SXuPSf0TYLq/P2A8Mcob87phPcjkJ5WVUOp9SgNVPreM6Uhuxi/0sm45C7/Mo0+f50dqS1QSpwpeRDni9w/Pj88vcpKKk9AtV93eppqwbEQwps+OcxkF/ofFZlUmvU1XpfZLtyTIIU3rc7EOpiGixVHO0nd1GNKNiWbMexnpaHo6y+j3xu5KdLTFKoHYcLeUec4cx27DttTFeKUCsxNgHXWukB01TE4WGl+djf097+lKzXvGjl/jRPvozu5P0oR8qusopYOz3ejl8f8rLF6ofaGKYb5viM7pQ5xFokmZ0nJip3DPhLTSk1xWcRdjuLYzukpBk6/IzmV/JfyFk6t0nsmpkDpN3hTmQBp5l70jjhF+fQdMI3W7jKDIHe/Mgrl01eUUCoJ1Fyeh93KKCSmX9GQ4jDejl7O5nkgZ1Co81D5srSTVOyXfEkFxQqZIoNbyvHc6VNWTwrhmuMv+zwBE80cNvNMFePQFTtTnZprqo3c6XMAykcIwByhwiHpV4R8LuhGwGbz4scHW5vVZUvgzFon48EfJP2on4gqitumtBF3qhUN0g6oSqNl+p0gnZwrsTM7MXFhPHCEi33FoH96xn6ckn4fSKdjT3x+xklBxNSNcoHeKVeNvJU7Q8z/moz04ZkWgyT8yxeXqmH5g5Fd5Hc7QwMCCre1Jh+6BGgyc7kknGIIb2TATlLxs+SJlgZMazKRt9bEe49A3KVqqFRSUkG8EWBalakMiC1yhgyoS+7OfvTDid18wLQm01vCVCYG/ZyJJoJDAjCtysgSJCVDzIFpubk775kWYAqYroept9LPHBWx3kVAg3v7DUE/AaYZuamvb6pyG/LWx1MB+SiUUKthujyF0iuOjXwsk5iPQkNqdUOqtGTu8v0wE12Tvae9v9yHWjkp4nlDRP3KkGo3OSwNDTiJ4jF6eRwFHr460brf6Mmy5Fk9w+wZDcRaaa1ANUxFEjI1ZdVBnkbn+h1QjzvFLlStQN1jLNqzWVpgIcSXSKCKqtT2WDLxTDWVGA71cbShKVUrTjdf2fP0OIuEZ9/iCkb4a7WNF6C9Og66RBJpPe4UmqVf4E7L00kMorcbbNd5ZaeMhENFFZVCztPQQfjn9wqVOsREX0PGjvtam21AdWbbMwSzLT0Jta6qI6cNsA+HaQHiyAc8hZCyYX8i158KQYjcA3yx/MjHF4FfrbCGahwRs3xawtS+GJ+UeSA0SPtUboI5tLjfQLWVkQJaa/Om+aTmVnD588opibMI03UjlYa6qqISao1EhGOT7ZabDOUT/IJs4tMbUtmCO9Nbz5eCUO+AKc6nPttEIfkyPtVuuUkmvgfXEnf6o2M+1TQai0FSrxlHffMOmLJF/LB4WlUBlS+tmwBTuz9MsXhaXchPsFHGx+fILzduZ/kw1bjXH1w/rZRsGh3rJ/jgd8D0Bze7usQ0QePGpsMU3hSWdJcL6Ir1rlH/bW8KmH6sFRG7lx9RQmmUUB+bmJr5rWxOwGm4+f/epadoSMF2cKa6pRq1hIjT6O/G504V2vuwTbwpFYl9onjjk9FpTts2pQQOS2GbVFCScjZLLzXzgKPl4w7fGD2BbZycLm7ivFO12CdZXtroNv3NQT6DQb4P96eGWmqa9v09jCht4B9d2o5FN8PIRu8zFi2DY9HPuWiDsegKcKqIBbpp+ulrIT3X5D3VUL9kQiN18yWT5yg0lkwqwqkgFttFnPvUUbvG9iUzLig93I1X9pol6JfSOTBaPX4zCc/HYHWEzKjZdgFawod+j5kSQ3C700n8gE7iuyyHq8/b9QI5D2w7k1l858wMskTUB9UZbFJDrat4PHK4eiPiSKD068xlafH4cQoaXtj2pf7amw9Sc9j2pf56JRtIRMA2L/XXn216ArSC4A6saKlfYFLEGsiXwbZJTp9UJ1oVqUsKizdaiEHCNjBRtHsEaV3YJuYZmtYQKof9tQzCN3OX20DybuphJw9WsG+wvtHp3ykETGEFaihdCqeOmN/DbwzbBqb9VnVKXupfgAJMYSWCvv4pgVOKRQAwhW0I0+Y4KgWn5MozYArbqITqJpnZOLWS3rAGTGGrLUQ2YZgO1YoAwRUII2DrLUjd02zZ2ThIZZCmCiPRsLVmIzonjXRKCGXNlmqES03jTB+2FqZxFh0TqPmbLlSU9gdRH7atM+3oU72x/0lOxbke7hS2roDikUp2us2u5SxxrtOSBjkkbHuUJrCnP/nzHmBtTCk2RLELBVsb8sVqwRQucSrCPizXhPrZyRTCPiw35Cu9F0w1lkthG1b5xcK+QtiHZaHU/OxoWNyD/eXyCWUU7BPKJ5RRsOzyac/EFGUU7BMSU6SnsKyQH0Sp1kFdnuzLkJ7Ckpyp0uEz0adUrzEJCDXddYFTVIR9WFKVr+lhKDFS5+Oe2+uR/oMLXAZuPliB+qkZLR0ByVrBOahqyHwmV9FDqJhBga31ph5JHGr5PjI27ZfzgTeFrc5N9RDuJ5435lATLkNu+r+9c11hEIbBKJ3U7v2fWBzuoklr7Mb4xHP+S0E+0qS5wbFIfwiP4fNmQX56pdXPnHm8GFM4xPZSbhm61utVQ3mmAOt3e9DhKtf+Oopqv7zX/dPmd5uyAVqi4Lto3/cva5oOd4+sHFQ6TaBLp0+fM+/OjKjVqexWk7wjfnaWQue9/9BpZOltSb3PoPfXIdz40Bvv5+Cgfb9ROtLYXJZD+NvQffGnWwqNMXXzVjFvs4QPAahpKKYfP28VfAYtiBT+ZHedWz8TFIGY2XVkysInUJOpTdFneppBTaY2hiKrBHLYhCkyBTlrautPqHcCOZApnFSm/BUQwy5g4oAiAAAATklEQVTmYaQ+6DmnRqa8R4EeA9vz4AQyzewiBXlM9xSdTaAf6hPog6JMB8aVgjzbHVKMhgBBShrHZTBkngfwkdEHTXu67CidNUrbCFyMCTPVxEQgtm9MAAAAAElFTkSuQmCC;" vertex="1" parent="1">
          <mxGeometry x="48" y="310" width="144" height="60" as="geometry"/>
        </mxCell>
        <mxCell id="pCCqeaRGn8NaipejfHK0-5" value="Actor" style="shape=umlActor;verticalLabelPosition=bottom;labelBackgroundColor=#ffffff;verticalAlign=top;html=1;outlineConnect=0;" vertex="1" parent="1">
          <mxGeometry x="-780" y="170" width="30" height="60" as="geometry"/>
        </mxCell>
        <mxCell id="pCCqeaRGn8NaipejfHK0-6" value="Use case Diagram" style="text;html=1;strokeColor=none;fillColor=none;align=center;verticalAlign=middle;whiteSpace=wrap;rounded=0;" vertex="1" parent="1">
          <mxGeometry x="-800" y="30" width="120" height="20" as="geometry"/>
        </mxCell>
        <mxCell id="pCCqeaRGn8NaipejfHK0-7" value="Actor" style="shape=umlActor;verticalLabelPosition=bottom;labelBackgroundColor=#ffffff;verticalAlign=top;html=1;outlineConnect=0;" vertex="1" parent="1">
          <mxGeometry x="-780" y="340" width="30" height="60" as="geometry"/>
        </mxCell>
        <mxCell id="pCCqeaRGn8NaipejfHK0-10" value="Schema&amp;nbsp; Diagram" style="text;html=1;strokeColor=none;fillColor=none;align=center;verticalAlign=middle;whiteSpace=wrap;rounded=0;" vertex="1" parent="1">
          <mxGeometry x="-1640" y="40" width="180" height="20" as="geometry"/>
        </mxCell>
        <mxCell id="pCCqeaRGn8NaipejfHK0-11" value="" style="shape=image;verticalLabelPosition=bottom;labelBackgroundColor=#ffffff;verticalAlign=top;aspect=fixed;imageAspect=0;image=data:image/png,iVBORw0KGgoAAAANSUhEUgAAAyAAAAMgCAMAAADsrvZaAAABfVBMVEUAAACLxQCLxQCLxQCLxQCLxQCLxQCLxQCLxQCLxQCLxQCLxQCLxQCLxQCLxQCLxQCLxQCLxQCLxQCLxQCLxQCLxQCLxQCLxQCLxQCLxQCLxQCLxQCLxQCLxQCLxQCLxQCLxQCLxQCLxQCLxQCLxQCLxQCLxQCLxQCLxQCLxQCLxQCLxQCLxQCLxQCLxQCLxQCLxQCLxQCLxQCLxQCLxQBmaGH///+LxgBnbF2KwwKGuA2KxAB/pyFoblpmaWBpcFmMxwCOxwaJwAR3lTKHugyBrBpnal58nyd3kjVrdFTc7bRlZmPU6qWIvQiCrxZ1jjmFtRB0iz1ufUuDshN7nSqHuwpqcld9oiNteU9wgkVvgEh5ly+AqR1sd1Kp1EP6/fWm0zx6mi33++9yh0H9/vpxhEP1+uuUyhSPxwvs9teh0DKRyA/D4X693nBue03m8sjh8L7p9NCXyxvJ5ImczSfN5pTR6J1lZWSs1krz+ebw+N+y2Vm322LY7K2v11GBe4EBAAAANHRSTlMAWY8DB/0K9/IVz/kvGqRuI9ru33frKRAOUzl/ZmC9l4Xn1bKLTfTjuKzKSEOcPzUewvvGNe3hJgAAKANJREFUeNrs3Ylu2kAURmEHY3CMMcEOa1jMEsoWljDv/2xtrEotlWiGxOCx7/newUL/1RFjIXN23d8OSqt1M6wppWphtJ6VGhu/XrYA6cr+QzxrVh11zqlGy/nQ5xuBZPZhEHiuumThBYODbQEilf146qr/c6cxPyMQqR1HjvqcE720LUCYx8ZaaXJOg0cLEKTyunSVPne2qViAEOX9OFTXaY191jpkeHppqutNn58soPA6w+O7+oracdi1gEKrbGeu+qpwtePkiwKz/VJLfcdk7ltAQR2ePfVdXqNuAQVU6Y2q6vsWox4nXxROuR+EKh1h0GeKoFja8Q+VHuoTFMqvrsRROqhPIE/SlaTNXVKfoAjs/luobiEc76lPkHfaXQn1CeTR70qoTyBO0pXclrvaMUWQT9pdCfUJ5Kk/e+o+vGfqE+RMV7sroT6BOOV+4Cot1CeQpx1H6t6imPoEuZB0JffnrBvUJzBe98quhPoEgiRdSXbCcZ/6BOZKupJMTV+oT2Co7vBUU9lK6pOOBRgn6UpM4K62TBGYZl+aKFNQn8AwH12JSahPYJBu71hVZqkee4TwMEJ5F5gxPs65AX/DCAN8dCVmoj5B5pKuxFSOR32C7CRdyUKZbLF8ZYogI3Z/HCrTtahPoK9YXQn1CYzVGa6z70r01NbUJ7ivymZm9vg4t+ARUNyTb1BXomdS2lvAJYXuSqhPYJCOeV2Jdn3CFMGNlbdGdiV6FsGW+gS31J6b2pXoiebUJ7iZx4ZnbldCfYIsJV1JPsfHueqI+gS/SetK9IRv1CdI2SEnXYmeZkx9ghQ95qcr0VPzhkwRpNaVrPLUlVCf4J5sv/RDFdGER0CRRlcyzftp96Ip9QmEdiV6qqcH6hPI7Er0uNQnkNqV6IlK1Cf4WlfyriRwvAZTBDK7Ej21ESE8rnwHp6UkCd92nHwhsyvRrk/4RCCyK9GtTwbUJ9DpSuSMj3PV2Sv1CT7pSsbF7EqoT0BXkoLmCydfXNB5OEocH+dqpwemCGR2Jbr1yYb6BP+wn0R0Jdr1CVMEf6sPpjK6Ej3OlPoEf3R7groS6hPQlaSgFVCfwLLsQyyvK9ETUZ9AaFei590bMEVE+8nenS4nCkQBFHYBdzFq1EQDyribuEXf/9lmyqpUjZVAUBC6+57vHfhxm1P3WnMD95VQn4CuJDX+lvpEqIP4riRqfXLIQZxB/sifj2g+T6xhlIau5CaVNfWJJHQlN1tSn8jRbNGV3MxutxhFRKArubs+yXN5x3h0JTF0nB2jiNGKhxHDRxzdGfWJwaruhuEjHpv6xFjWfM3TbhL1ySv1iYHoSqhPENaVtOlKEtMdcQTUKIO8R9SeJJv6xCDFD8eUE+fqoD4xRVHGHZz0+eMGo4j+mlLu4KTPbj9Tn2iu9Dpl+HicuscRUJ3RlfyI+gQXT3QlKVhSn+ip6m748xGMI6Cysa8kReUV9Yle6EpS1tvuGUX0QVeSOpv6RBsDl64kA/aJI6A6sHZ0JRmpTKlPVFfszxg+suOPG3wiKmu2WJaYoUt9wiiirBL7SrL36bnUJ0qy9g5diQo6a+oTBdGVqMOfsYZRMdW3E8OHQmqsYVQJ+0qUQ32iDqsx9s9QTc+hPlHCE12Jopajfg63oyuRgvoka9ZuTVeissr0nVEkI5euhOFDdT3qk6w0WzWGDw1Qn0RHVyJR/ehyeScKuhKpqE+ioCsRzJ81cghBVyId9UlKrPcpXYmOyqs8T74PV6Qr0VfHGTKKfEdXgi/LCfXJA724Hpva9WZvWtQnV+hKcKWyoj55iAZdiSE6Y0L4i4S7kjNM0WYN4z90JQiuT9h9QleC0BD+g1EkGf0RyxJN1CtwBJSuBCFqz1zeoStBsLLH7pOYXQnDh9moT2J1JX/OMF2X+uQ+L+wrEYL6hK4E4fXJnFGErgRh9cmQJ1+6ElCf0JXgPvUT9Um0roQjnEJRn0TQZ1+JYL3CnlGErgTUJ3cp0ZWgfMyzhpGuBMEqDmsY6UoQYjlhDeO3ruTI0y6+2DXqk/+VdhzhxJWFN2cUoStBsM6W+oSuBNQnv3Ul3uIM/KS+eRNen1jDLV0Jgi1kHwHtT+hKEM4v7HNC0ZX8Ze9ul1KFogAMLwQj0TSzRNGM/OCYYppx/9d2Zs6vmjk5Vu7NXvA+97BGF7zsjXPM61mfXG3XPNrFmfVJ7VYRf99g+cC5sm5er/rkMKErwXcM6nQJ6MijKwH1CV0JLimcreqwitCV4Of1SeWPYWzd05Xg5/pppeuTEV0JfqcdTSu7itCV4ALCRUWPYRym/QL4veenCp59Ek83XHGOC5lPKlafXG3XLB+4nPDdq9IqknBeCS4s626r8siXrgQmDBqVqE9iuhKY0Yx66leRq/yF5QOmhLOx7vqks+SKc5h0t1N8DGOrF/HJIAzrp7c634rQleBL1CdBsiNqx9dqXp/c0pXgHPWsT+JpxBXnsKqvpz4Z0ZXAvvbmUcUq4u/pSlCK6xcF9QldCcrzp9FxexWJvXe6EpSn6fQxjEHeZflAudru1id0JXDBXTd38X8W9+DAFYOlc/VJPJ6xfMAVx2jq1CoSvNKVwCnhwqFLQOlK4J5nVy4BDTy6ErhoMHFhFWmlvDiHm44OhPDDLj8fcFb4kkipkjXfDMJlcy+Q8uSbAnDaw/1IyrIiTITzsmVLyrHi6S4UCEuakC2/H1AhS0diX0J7BSWyni+2DWcFoMTzWCy76fJ8F3psOmJVkPJ+EIo0d7FY5Hv0JVDl+tEXe4a8IIQy0a1YEzwVgC7N1BdbxvzBgjqDvVhysy4AbY6NQOyY8n0tFJrvxYoDrwih0fHeFwt8j1cgUOntIBaMFgWgUbYSCxIeYUEpK2t6eiwAleYtMS5+KwCdrnMxLh8UgE7tiRjX4wxeqLXwxTCfDAt6RS35DzIT4J9+IoZ1+BIdej2MxbBXbpGCXtlUDFsRKkKv5kQMG3NWAxRLxTCvAPRaymcMCPBBQz5jQAAGBGBAAAYE+IABAU5gQIATGBDgBAYEOIEBAU5gQIC/7NMhAQAgAASxUrjv34sGZxFsHRYEgSAIBEEgCAJBEAiCQBAEgiAQBIEgCARBIAgCQRAIgkAQBIIgEASBIAgEQSAIAkEQCIJAEASCIBAEgSAIBEEgCAJBEAiCQBAEgiAQBIEgCARBIAgCQRAIgvDMtvOdy669rSYMBWEUfqkEjVYFjw3ioSapsbZX0vd/hcJupyAM4b+evb53WMweZhMINNPj2+XWdsWoyAqBQDJq+nJfbi/XQ16FEAg0uzIZPz6rIiMEAkl1L/+8n5ppPlOEQCCpVuW/ejXJJhECgSQFYuZ9u86kEAKBwgIx29t1WeSAQCCxQMx+9r2pMpgiBAKBBfJkcWriJ0IgUFggz+r7uQiOQCBIgTjml/ZQhEYgEKRAPPvxx8sy8juLQCDwA7HbeuRtnUAgGAok3dbD/vMlEEgsEN/Xah30tk4gEKRAhmz7XTeKmAiBQDAYiN3WQ27rBAKBBTJo9tjE+wlPIBAogaRt/RxtWycQCFIggnm9C/aHkUAgSIFIZm2sZxaBQGCBCOpjqFWdQCCwQBSvoUYIgUCiB9J3kUYIgUCiB7KYEAiBZEcPZEwgBJIfAvlFIHAQiCEQOAjEEAgcBGIIBA4CMQQCB4EYAoGDQAyBwEEghkDgIBBDIHAQiCEQOAjEEAgcBPLDPh0SAAAAMAzq3/pq7hGgAxGEQ5AIwiFIBOEQJIJwCBJBOASJIByCRBAOQSIIhyARhEOQCMIhSAThECSCcAgSQTgEiSAcgkQQDkEiCIcgEYRDkAjCIUgE4RAkgnAIEkE4BIkgHIJEEA5BIgiHIBGEQ5AIwiFIBOEQJIJwCBJBOASJIByCRBAOQSIIhyARhEOQCMIhSAThECSCcAgSQTgEiSAcgkSQsXOmXWkDURj+UzO5CcFQI6saFgmLrIIgigWsW4u2/e3VtGO1CQEyyeROD885fvILZ+48Yd7wJjs82AnC2Amyw4OdIAw5BYH/aSQ42QnyGwkFATBrliaBI/oLRFZ2gvxGPkGgliy1WvmMiXws+mTa600nsiqCTRD4BM5ftPwHgpjJsUpfSFWKqPfe7ezwarm8OpzdEilBJoiZGeRLebsc8cxlFwS0aiXFBlM4SBCs3yKXzzd9xaF/83xJ8AJmcVA5L9lVDcg7cAnyOvZ69ujrkdqNeOZyCwKk3K7TvxjNXA2jIfr+2fFQeWN4fLaP9MvOueBkKTWy9dIHRTAJAiTxd+xGsxHlzKUWBGq5uUE/kB13EEaR+7sn5QNPd1OCkkS7QBmFdpm8gUgQsHInhqiZyyyI2TnNUhepUhXZ1XkyWyguFrMJQYf5cecZc9ti/8IjiNYZq+JmLq0gLHx4UGin8UQR/fobCx8MFkW+XaMyGbSMa+epJ0kLnLVEIgho5VJK5MwlFQRI+aBOV2GcNCwchuhw9jhUVjB8RBRFQK967jz1/Pf5BYcgkBgUVsx8Hs3MJRXEsk8M3xGdZzSCgPvPV4oPV5/vCRLSgy71JlUqaoSgEMRstLI+M+9EMHMZBYGX8KHSNdRLZR1IvEy+L0aKL6PFdxRRxGycZOlKCvmEDmBW4hUEtOL5HvUjFcHM5ROEhY91GAU71iiiX/YO+8pa+oe9S53EibPzVP+17A7KtU4qTkFAL+dT62c+CPtXEfkEKR8U6GZkWw0zPkOmDxfKRlw8TEmslPP19WvZPa3TGAWBmt01Npl52PFTNkEse27QjdmrFGOKIreu8OEbRWJsn9QGTcqBGEHMpCt8CIqfUgkCZqelHtFtqOcT4qOIfv286CtbMFo8x3PLF5ydh1wQ0IquQ7Ww+CmRIK/rtEe3xegKbJ+w8PGjr2xJ/4fgKMJW9DV8oBbE446+yCgikSBO+AhAdpw0iUCmd0slAEvx7ZPEnxVFLYiVm9OtYPGThII0grDwEYCjVKUq7Jw1mX1RAvJFbPvEeiuyIRZE65yqR0FmvvcSRYDwI4cgTvigHAgqwuvXP1mvJAj9m5+CosjH35KwCuJ9R3/z+BlGFJFBENCd8MGFMc8JaJ84vRIehse9fRI5Tq/k3YoiFQScajEH3QH/B5FBkHCOyuq4o5EIYaV2Tp7uBLRP0u0ufQdOQVip3YXQKIJdECBWrmlQXlgTQQMSFZMZ65XwMYo4igC4eiUIBfGqFgeLIkW+mSMXBNgzH+FQGCQgAkWcUvu/vRKkUcRr56ETBPSqq1fCEUV44iduQfRiKUXDxGhFU4o+Y72ScLh4PCPRoFc9eiXoBGHV4nBo2mkSGNSCcIQP3yZCmIqwXgkHIorw/r0SXIK4S+3cUST4L2FoBQFYEz5iv/33B9271M4fRb6H/QYtMJMrwgciQVipPVyCRRHMgrDwEQVG106HYwjrlURC//BbmO0T0DKreyVYBAHCSu1hUz8ok21ALojuqqch+s59z/RhqUTGMswifDnvc17FIohlN2lUNO0a2RzMggBJc4SPTdsnxRCiyO2MI3wILMIDsWzf8yoKQcBM+pa1+S+Lm70eCLsgUMuJGGadt32iT545wsfmRXj+KAJmZ03sRSAIK2tHyd66y6IEgoDZGYsZptHkap/s946HigD63O0Tvbi2V4JAEJ+ytrAoIoEgOquniUAdJzUSANYrEcTTwz1ZD9fN8tgFcXolIjCatkW8wS8ICB9mqlINEEWcUvtIEcboKnD7BKyGkPDBJQiYmVOVikJ1RxFJBGHhQyiFdoL441lqHylCGd24n8lFdV7lEIS9so4DjigikSB6RvQw2WsYNbIV08cLRSSsCA9kSzh2nkBBEhzVYp7ng16RSpBf7N1rc9JAFIDhP3U2m7CQ1FgCGLkVSLiUcilWrNpSL7Xa1t+ui01LaAgbirObzHk/Oo461cdmSXJOvuISGblWO5GQmytNSr8+Jzysd8T/5ckDYvhHUv5b7DcAUgWENrpEVlYRxBtfaZI6uwXxqJHkuRJpQIx2gcipn0sXEGNA5HVqg2jv7zVpXX4B4YySRcSTBqToEUmZdSNVQKpHRF5eDkS7GWnSmt2CcDWPSEsciHFKpFWp0RQBoYcWkVfhGASjXzWJfRc+hRh1Ii1xILQ1dImsnPZBqoDoRF6FPAj26q0msXthIJ0KkZY4kIO8RaT1Y4BAsgbkjTCQmkWSJA1IgYiHQBKEQOIrIhAEgkAQCALZEAJBIAgkJgSCQBBITAgEgSCQmBAIAkEg4llDz0QgCASBRKX3S7VWzT8tqA9kNEoFEMdJAxDT0R0TgWzL7PpVOKAHwHeIqA1ktPh9sxgpD8TslorvdOWBWM1irlb2EIj4qy/VdldlIHxsO39ZV3EgfPIk2KULU2kgTu/YBgp8DiMC2ZzerLHwdDRPVSB8HXqww1BhIMHsYr46U10gZrfdocCjtt83EUh0zlHepuvzNU91FYGM3jxusWXz8f1IUSDmhV+lT0NydUWBWCvjlSnkJhUTgUQ0nHSAwlrL9TCqAeGTqGGlj3eXMxWBVF4fAg1/KRUEsj6JmvJZUS4CWcurt9jGQVBqAYlYq/bt0y/lgBSaNfZ8oIJqQMyotWrG8TsdgYSXn28ebkSNWl1XBwgfjficMh1fT5UCwgd608htn0oBqQxydNPIKAQSmhpKtwyjVQPI7DKYaBW1MlodIMH1auQGbmWAhAf9UbpKOZfwAxozu28UOs3tc6erk4oKQPh49rjNVGoAca16g9GYnQRqANF7eSNk1wa6++qdSjFd76Tr4j7qIkOnWd6TDmTrrsHz72cKAHG2zShulC0FgIQXfFDbb56GfgRoouVtTRsyCqTXoSAQm5hygcy2b6tlc74dVy4Qc1iK/YIGq3ElAynwbbXhbxeuq/fz4Q+0chOPiDVs0YwC0QW/NdLchVQgZ5/fi83B/ikViF7PMSowBLtUkQrEGRg0NOX8AUIhPH6cspIudsOnCJBRIP0OBaGMsisRyOzTXPCX/DyTCaQpuCSF+Y5EIG63QVe0rj4IMwx/rmUfCT1Ok7bZvAmA1G0Q62BCJAKZnjAQio2n0oCIf5YDNGfJBNKzISi43ou+M2I0Bc5cxdRNd08ApGyIAimZ6QByhkDEgbBG3Yu6t/4IpG5uPXNV07cfBIEgECEgzB+a5HneoCoIxPv3iTYCQSCZBFI9cuMn7cYDcd4dG8BDIAgki0Do4UuAmMN2J6VbbhEIAvnvQKzm09UVAkEgCCSU2c/b8BgCQSAIJPQTJocUnkIgCASBPKWv7/tGIAgEgaxsMrYhHAJBIAgkZukzAkEgCGSZHrzCHgqBIBAE8jBXMOpPg0AQCAIh7sbHdhEIAkEgMQ+WIBAEkkkgnWggbgiIwGO7CASBZBEI2OVClBC9WX18Tc4ky2IHUQACQSCZBAJ2vu88f4G2XYUg33wYbm1AXAgEgWQSCNDDydorIdbrBjzV6TmmOZx0KMSGQBBINoEAZY26FXOfo+MPStuvrhAIAskoEADKZ/HGPEXCGGwLgSCQTAE5Cn7N8GCTyiAHO4VAZAOZ3YkCuZU69qcseDFCi7pEIKTg07AQvuHHatZ2vJRCICAbiPbhZi5AhM1PrjSZQDyhmwXUqB3JnazYfb4sqdqxd+WBQEA6kGDpWnx8IZtUIMQJlq7FRPlCNnlAgvUlxt48IBCQD+RhbWdMfKWnAsOrl2s74+IX/PKHV5NKOQd7CoGACkD44ufN11lsfrMYKbH+wOy2q0AhuuXkaiXWHxCnW+J/zj2EQEAJIJo2vR5TiO78+kyZBTpOb8PGLsoaZUuZBTrBHqwXh0BAESB8h843eB7fnqPUCjYreudjZ9JVagXb8igCLw6BgDJAtNni7iOsNb9dzFRb4sm3sK1l5Hu6Yks8l2/QMgovC4GAOkA0bXo/Xt3jyV6N304VXAMd2jv/sF5ZwTXQxAlWVO4eAgGVgGjaz5VN0Gy5A1pBIIToK3feaI6veVQRCD8yvfAogkBALSCadhl85Pv+7nKmKQpkZQKI7fdNoioQQqyXHUUQCKgGRBu9OZkzNj95M9U0dYEQ88Kv0oeNsQoD+UeZwo4hEFAOyPLW+vnXM01TGgh/frzYeG0RojgQvi2/g4+aZAmIpn34MNOUB0KINzSJ+kCW+6tt2CkEAkoC+VsagPwtFUD4UaTFKCQPgQACES+9QHY9iiAQQCDCpRrIbkcRBAIIRLxUA9npKIJAAIGIl3IghFhJ138gEEAg4qUeCN8DnegokmEg7oSBWAe+vn8g15rE7hFIzA3OJEeRDAPR8xTEoq3h3oHQTzNNXl+zBuTY2+dv28sbIFh2gbg98V2MRn3vQOBkpElregKitTwiL0/0r4g2ui5ZpvBRJGVAvGMKwjUu9g7k/b0mreuPIJp9QeTVq4JgRn3fNgcNECqrQDzfgAQVu/sGAuMrTVKLbwxEY22HyMpsMxAtuAre51FEmGf2gDj9YwaJap3qewYCJ4uZJqHZ4hwS1HlHJOX2chSEy1fIntOXr9cLlTEgfGQ3JM32/7B3P0ppA0EYwF9q4xKukhIlQtNQBKMIIqIiCPW/OFprn71mpjuOjFpy2TvOzP1eQEfzSb5z764ZhKwBgRHtJtfp9Oc1pIGtXWc5mnVIQdSPVkOH12qKKpKjgNDpTWnF3TZXQMhk9rCi1cPdBFJCOgJdG/otQTr+TidwOKU9sjcfASlsViT/KqBoVT3egMD4/knjalb/2/0YUkP/y67uIlI4kvgtYXHQc5iVmimqSA4CQscJyEG/MiywBgQEbZxV7/jq90iABMR4o11y9AnO5a5cRpf/0y5MWUU+d0DagxgQZFEVYQoIudZTRX7dXIMsFMVqzdGl110HBCkvpzeaV0XMD8h2tQXZFbs93oAAHsxOVtShgxnLkIVb31x1lKOD5+RhtNMsOc+MqyKmB4Rea7NC0frhsQYExPT+m9Iqcnz5ZyogG6RbL5UKsr/Q0DFDzFXEh5Q+VUBCKh8MqIowBYSqyJWyKnJ8dXYN2SHEWxJ7zHUfKk1VhFlht+JCap8mIEn5YEJVpMQUEHJ782uFMJePW2AiGtVtRw3a9crD3TtiryLejgAp5gfEq7YE8KElRd6AAB7cHa6w63/fLwMHKsEMTx77xTZ6qkgnAllGB4TKBy90qYpwBQTE9M8lcxU5vngcCWBCT9554PALOryDHQjFbo05wesI0kwNSBjQ9b68aEmRMyBAN0WxzpVwQ4i7PYcX3bzDiM7MZlSLQZ6pAWkP1kEN+hxnCgiZ8FWRh9kElKB1POa5En7u3jBwuARdF+SZGZCkfCAoQkuKvAER5f3vfZby8US34/JDn+/Jo+kfJRhnALYHEWRgYEDCwlDRD36+inAFhKrI40U/e/n4PQJ1EKONNkdEaPpHFYTiWo3n35fZniXzAhJ02MvHu5/jBbaA0PTJlXnlY15xjaGK0AK8QkkVCTPW86OKC9mYEhCIe3QPWBGUm68iXh2y4BqEP6ELP9US9SwlmN6BQT3/C70QSt+yk5tZLHDXSmHoeD8aAkELWlJMvmwnAibJ/R996aH2qQDFqIpkmj4pDCs+gmJURQL50eI4R9O8APFas0mtTwsa0Hr+sg1gNKVB+LRzJSPQBSHaki7BAc03aYBCoorQ7lOWP7XmBATA9wUooP/L3v485Z4r4deo1iSH2ougk5AZR67R7tPMTApIfpQPZofp5kroFlx90K1vFiRWheoCQT3ZnZH0TeZuT3rOiHGKQfg+DbXrQ09eM0hXPmiuRAPpnZGrw0oOTzXJn9HZglWEhtqXIR700hw5tRWBThI7I8MC838JbEDUWeg69IebCSxTq+otPNTegOVZ7IWw1NyKgZUNiDqi/N9B+P7T/ljAMqFPg/B8Q+38FtsZWUq22Ob0bN58okH494fap7B0SAdafCDo8MyVSFtkbXpbxT/RbEAUuz67+miuxAx0oMV72oMIjPDB2rS3WXGBnw2IcpObhzfnSmYTMMaHg/BetQEIRkC38nYVCYaK1tdsQJQT4/2nw7cOSxRgDvT3dgvvnCpTdw2JR+LNKhI0dyLM9x2F+TZ+vDyeG2o3oHzMibbOS84bj97Sy8drCPGg/bqb07mCKtiAaEGD8FQ+bsFEjVdzTzRbbaBWdVvX8rMNiC6T2cnLYYkmvV29wOQYxrnDEs36+Pjn5ZCWEu2IUsUGRBcxPphdnJ5e3O1PzYxHInnDL4R0+nPFsLerF0ln2mz3es1qXfH3aAOiEZZHo7Kxz9w/0aDjOaHjdTYMWdp9j/DjyBWgmA2INa+4t7Gxs7cO1jMbEGsefk2Y/kmniQ2IZdmAWJYNiPWXfToQAAAAYBgkdX+2G4ygHGITBIIgEASBIAgEQSAIAkEQCIJAEASCIBAEgSAIBEEgCAJBEAiCQBAEgiAQBIEgCARBIAgCQRAIgkAQBIIgEASBIAgEQSAIAkEQCIJAEASCIBAEgSAIBEEgCMLZpwMBAAAAAEH+1htMUA4xBIEhCAxBYAgCQxAYgsAQBIYgMASBIQgMQWAIAkMQGILAEASGIDAEgSEIDEFgCAJDEBiCwBAEhiAwBIEhCAxBYAgCQxAYgsAQBIYgMASBIQgMQWAIAkMQGIJA7NthTsJAEIbhT1sKAoU0gSpQCBgBG0WNzP3P5gncfztkwvvc4c1md2YTCARIIBAggUCABAIBEggESCAQIIFAgAQCARIIBEggECCBQABPb8psNTAgrL0yO54MiGqwUGZfZwOiGnXKbDo2IKrDUZn97AyIqpkqs2pmQFTXF+W24RkLYV2U3WppQEzDTtm1rwbEdGiVXdkbEFNfKb/50ICIfreF8msZFSKmcSsH1cWAiPal/sc6Fu5cs5aL+t2AcCaPhXx0IwOiaaZyUrOPhXAmi0JethwhiGZXy80zw0IEc/6QozWzEIRy2lRyVC4YpyOS/kmu6hlb74jj2srZN19vEUbzKXdHriEI4vxQyF2x5ecUQlh2hW6gmlMIAljOS91E1R0M+GPvTtfTBAIwCo+BgIILUeMSBGNW9yVy/9fW9k/TNLGdKMss570Hn4cPjjOKm3VcURG31ssApfUSV1TGWae87YXKgrEjqjS4YohAXelWVMwbp3xUh5r89kBUrzUJwgxQTq8/FEqI7m8yQC2zzZ0jFOFsN/xDBCoJH59HQiFDpgjU8RZMWkIxrU7AK18oofcUKfN09YfmE98NUb1ue63iz+Mnd91miqBaYVpT5N3VV4a1I1ME1bl+6Cs3Pj5qxVyPgKq8XjUVfbp65+ymRL6oQn2xcoUGvNUjp/eibOEyaQhNDCdL6hOU6ibeK/90RX2Citwq1JXIce823Qwogz9XqyuRM3pOmSIoXqhgVyKnQX2Cr5nflcjWJ5yehSLVN2stXu2e4m2pT1CY8DBWuCuRM6odqE/wm1VdiZx9n/oE73LsSoQhdpx9gpy9aNKVyPHWj0wR2NmVyNYnx7cMyKsrEcaJYuoT5OF2qltXIsehPoGtXYkcj/oEF3clho2Pv+uTJfUJLuhKVDhMtFDNe+oTnKfe3hr0avd0CE99gjP4BnQl1Cf4gK7k3PqEW6RhaVcixWlSn0Cav1h7wjLUJ5DkG9eVyBkmB+oT/NeDiV0J9QnoSi7n7qbUJ7CzK5GtT+ZMEXztetmxcnx8qk8y4LPevfFdiZwB9Qks7Uqk6xOmCOzsSuR4NS4Bxbugz/igPsEJsye7uhLqE3zDi4VdiWx9smCK2M4/JoyPf9Un3LxjNYu7EjlRn/rEXl2ruxI5bnPKFLHTy3xleVciW58QwluIrkReY8LZJ7ahK/mWQUx9YhO6kjPqE6aILfzDmPFxRn0ypz6xQmDTeSV52neoT8xHV3I+h0tATVenK7mIu6U+MZh/TBgfFxolKfWJoR7iSCCP+oSvIgbqTnd0JXnVJ7MMZqnPV4yP3Lgr6hOj0JX8Qn0CupLSRPErPxEj1Nt3dCUFcHfUJwbwU7qSonhj6hPd0ZUUqtUJeM7SGF1J0ZwB9Ym26ErK4G45hlFL4YGupBzDJOXmHe3QlZRoT32imVu6klI5zSlTRB90JeVzVwvqEz3QlVSjMTkyRTTwSldSlSjuZVBbl67kB3t3mpwoFIZRuBBFGRRsg4pRcY7zvP+1dfqfnQTjgHCH8+zBKl7r1P1yZO42hPAiK/cjxkeurGhMfSIsuhIBVLvUJ2IKJx5/7QrADKhPBFRZbPm6EgT1iXCOB+7giKRl8PaJSOpvdCWC2fvUJ6II4x1/7QqH+kQQlfmU8SEk6hMR0JUIzO4tqU/uRleikf07R0DvQ1eiF+qTu9CV6If6JB+Oz4lzSVS7DlMkY8MCXYk8zGBCCJ+lPwuOcMqF+iRDLl2JhFoR9UkmSnQlkqr6I+qTlwtjj68rSZnNAvXJa1XGdCUyK65qszNepbTs0pVIzjZOTJFLdCWgPslCSFeiCHPHEdDUlecG40MZ1pT6JFWlEV2JWuyuwxRJzUehSVeiGDMYMEXS6krWjA8FmdsNR0DpSnC1PmGKPKfUoCtRmU198pThhq5EbWazQAj/qBldiQaK6xpvnzzYlfAUtRZs48QUeaArYXxoo/o+OoOuBNQnqXDnBifONWOtqE/oSnC1PllSn9CVIBn1CV0JfqlPePvkmmOfrkRv7Sn1ybX3Shgf2rN9joAmdSU8lohPHs8w/vxeCeMD1Cd0Jfhdi/rkP41BwNcVLlXfqE8uuhJ+HvhWnxSoT/4pzyO6Evxcn/AMI10JkrV6utcndCWgPklUqdGV4DqzE+tanxwPBk9R44b6ZK7jFKErAfVJsmFMV4KbeQO96pPZgq4E9yhuNapPjg5dCe7Vjg6a1Cd0JXiwPnHO6gs3dCV4kKd8fUJXgmdY67HKU+Q48hkfeEq7p+4R0AZdCZ4XKHoElK4E1CeJXLoSpFmfqDVF6EqQLttfKlSffNCVIG1NZeqT8oI7OEhfsaNEfeI6XcYHXqKtwBHQOl0JvqI+oStBRryJvPWJS1eCl7O2CzmnCF0JstHuHSSsT+hKkJlAuiOgdCXIkrmLw7M83BNdCbJlraSpTz67EsYHbqJjfTKMd4wP3Eyz+qQ8XtGVICfFTk3sEN51eowP5MiK+gI/w1gf7Pm6wt/27jU3QSAKoLAtICooIEJ8oFZFfFTQyux/bY2/mphqS1phcM63hwnc4eRSra4ja33STzOOByqn2bGMV77WbM0vziGFZraTbRQxOnQlkIds9Ykfhw1AIu5Ant0ndCWQj2ZLUp+Y+QvDByTUfJdhDeOSrgSyake5IQqjK4EywokvqpPQlUBy+rgXiALoSqCY5mhrigp4b24DqIEq6pM++0pQG1oYb0SZzNmafSWoEb3M+sToOAwfqJnhdGaJUvix3QBqxx14hni4hK4ENaU/vj4xP+hKUF/6N/UJXQlQSn2yeD02gJpzJ/7XEaErAa7oxzQQ/83aRwwfeBLN0epSn9CVADfrE4OuBCihPknoSvCE9KwX0JUANw1fZhZdCXDTyflbfdLqZXQleGJaON/QlQB36pNdi64EuKk9zc+isICuBKooXp8kqwNdCZSh2+lC/N45pyuBWorUJ96ErgTK6UYdS/zMoCuBmjTX2ffFfaafZnQlUJTWHqV3zojlrQYhHwahMi0cTXbLxLh+sbI229dozMMD0Nr2IYp3uRdcxvZzy++s5s76eOJeVwKfRrH0kLZaqZ8AAAAASUVORK5CYII=;" vertex="1" parent="1">
          <mxGeometry x="75" y="460" width="90" height="90" as="geometry"/>
        </mxCell>
        <mxCell id="pCCqeaRGn8NaipejfHK0-12" value="" style="shape=image;verticalLabelPosition=bottom;labelBackgroundColor=#ffffff;verticalAlign=top;aspect=fixed;imageAspect=0;image=data:image/png,iVBORw0KGgoAAAANSUhEUgAAAV4AAAF8CAMAAACwkSMVAAAA9lBMVEUAAABELSFDLSGNcU2Pb09DKyNELCI/Lx+NcU1HLx9FKh9DLCJFLSJXp09DLCFDLSKNcU1DLCFELSFRo0xELSJXqVCQc1OOcE5CLCNHm0tInElYqlCPb09aqk9JnUmNcU2Pb0xJnEpXqlBXqU9Tpk1YqVBHnEqPb09Kn0qlooWMck1Xq09InEmOcE5OoEuNcU1JnUlJnUlXqk+NcU5YqlBInUpJnEmNcU2mo4RXqlClo4Wmo4VXqVCmo4Smo4WmoIamo4SHonJYqlBJnUpELSKOcU6mo4VNoExUp09RpE2Lo3N2omafo4B+p2ppqFtjn1qWpHpOoUxjGLZXAAAAQnRSTlMAv4C/QEDvEIAgMN9gEJ/P74+vIHDvEJ9QQO+fIDC/31Dfz4Bwv2AwMMBgQM+PUM+fgGCv36+PcEavgO2Pr5wjcGDSdvxYAAAPgUlEQVR42uydwYrbMBCG9QI5hRy6IYWNnVJwWdqQFgI5jQ7OHvv+L1OykFWyG0uyR1Ps5Pse4UOMfs3IspsgjQNDNg4MOX53YEYjPx2Y0Ug7c2BFJe0vB1bs5fWJ5WvFTOTVf3NgQ3XS++zAhPlC5OhZvkbs5aSX5WtDLW96Wb4mNPKG957wUJ7V4l2vJ/sa2A16n+YOSrJdyIVe/9tBQQ7yTutPvDgoxWwpV3rZ3YraXcsnvf6Pg8J2g17Cb8HIcFPvE3MLA7vy1+PXzq68+jPPbG96u916/Q/8FrMb9OLXwG7Qi18Du0EvfkswW8htvfgtc5qI6Q1+HZSzK0f/Ae7tDGApnXrxa2A36MWvlq1k62U41JtGcvXSPuvPfNFHL9MLRWhI6KV9pt3W0noZHvegljj+DMe3Aaykv16G87nMdgP0Mt3MZS95eolnisKb1Et80LZ48/UyfctkLXl62d6GUIlSr68dRDKZVq+n/HayztVL+TUoDUEv5VdRGvL10jwrVRoCrT9DcyefWnR6A18dRG81pPWSzhRN3pReyoNiupbWS3noybqfXtKDYvCu0suHQzf2NZ1ebpZEqaS0Xv/FQVi8er1cnOziIP31En5zmUtvvexu+SxVehkcKxavQq/n7HZiOVgvnV/F4o3qJZzZLN7w7Qqthwxm0l8vyzebaoBelq/BgS3oZfkatMqCXpZvLrshelm+mbzIEL0s30w2g/SyfA2OFEEvyzePg0IvnYckC6VexkLKVKbX6x+277svr5fvuSMbm4neJ/eY1EX18j3WB9bD9ZLNkqyknF6+t/jEQaGXbJZkN1wvm5tBbQh62dySHBR62dyS7HR6aTxEmYtKLye3OPV/1PuAP8laq/QSfePMpJBe7vPdYqvRS3VIsdTopTooYlmKo6c6JFiJRi/VIUGt0kt1SLBX6aU6JFio9FIdbEpv0EvfIcK2rF4+dLtmqddLV7KbdRm93CfJbDjo9fLIwzuNVi/RLEal1Us0i7HX6iWaxdgV0cvAuAMpo5frJDdptHopvjG2Wr0U3xiVVi/FN8ZGq5fiG2NnoZfnoc6Ild407v5ZldXLN5rXNGq97G0RqlJ6uco3Nr0P8DjUpoReJhZj1PsA0UHQe8F96b37ZDZH7zXjir1y9CQz9OYzqth70kvPbKR67z74ovcGI7lfdtbLuK2LjV4v5wr05oHeabERLd57ZvFdiBrPqRi9eaB3WqD3EvROC/Regt5pgd5L0DstRE2LXvT2YhxvDaA3yQa9F6B3WhTQS0NytHrdnVOh9wL0Totar5dBfDeNXi/XSNDbg3Gdik96efBllHrv/gKqPvi2fDcYYa/Wy5nYMvi2nIkjvKj1cqqIsFLr5VQRQ62X2GsZHVpymeX1/5ZcZtnUaclllntbS3CIotVLcLDc21oeI4lSqfXyOr1dy7dlZ4uj1MvOZll8W944tEy+LaMKy+Tb8meFf+ydQW7CMBREfQFWiC6Q2LBqVVaIShRKaTffSRwSev/LtICqEBVRnHhWvHeE0df88dgE5UdQPf8LoqwdPNarrNQ91qt8RO1JvdHuoJd37O6HPu5A4SB1B6p0qTsQy6S1Dt4gPVngDdLSF2+QfmgWb5A+5cMblNE340yhXG4ZH5aNLNX18j66u2Mw6iYvDxxu462bvCy2qGyml3d8Z6G3T/GQs9iU45vziwrl+Oa8SVeOb84tkHJ8c4ZXOb6eVKYcX8+R4naGo2h5GV5lre4ZXmXz4Hm3F8M8Ul5iQxzTOHnJvNI7eYZXGc4y2gbldst4c6rcbhk9r/KnQhknCuXZLWevKW+Nc66HlfaQ8+kRpT183Vw2sNc62IPnvKZ80ueJvMrDRY01KLuHmtSgbNZrUoMwnVWBA4XAfqPkHVOUdfzQQwhcAAm7s12B8Qqr9V2B8Qpv3vZ7Em8fBovr8tp/a43Ee5XJ1fhQmmet6U5vZjXfMZTFh8qs5pm/rJyszAK/HJbFs2B2JZnNCA399N2Zlagr07cwM8+rBtXxYm9mNYG3P4Pp5dhrFlBXpa/9UKCuSN/KDnjU1egb7ECNukkYvP7JZRfdYcbtRJJ8VtgRj7oSfUs7Etr1OXk30e28nShpcZIxbwWHE4GLtWQ8j1qb7UDpfyMD7XlvJov2ZmvCw4xAljAAl9bW94WlljBAVHZG4cdc/CRjPjpZb0P56SAZk+mxjWzYOEjIsD286wcHKdnYOSsHSVkyvFLsjHcHTucOSweJ+bAGB6nZNuo+OUjOGutVsiGWKVmx2ZQskVdJs9u2DtJDLvtm1w5qAISBIIqiAg84aCA0+FfFdQzMYZP3JPz00Ha36pK36ZW3Ja8Oz0HB59HWtOQN8s5yylslb5J3lkveIO8s8iZ5Z5G3asvbdPsxC/LOIm+SdxZ5u9Z+TIpTo7A9h6rl9AIAAAAAAAD87JzPjtowEMZtJ7ZxEuWfopADEtxWQkJ74MALuO//St0Wsh9hJokJVG0F32nlHTvObybjsS3x1lv/hA4/phUdV7EY0X6i32f01e/ltfkRouO+FYy2M93K9Ua8thC8M2JIxSHdXvvXAfeHiMTgNorQOEFqszpE5Rzf8kO8uNr4UAJH3Dd/7FbRkNSO67yHJ05fKDdxfFpv33wH+vjmu7qBNyC8nk7faIvX6LR97fwwzMF7Qi+a49sbfA4Sc/kDHnt57XoWsYBACnwnXBONfBDlO3xj4KVqo0m+K+DlC4udeHWxeKE1+J5C8YronR3m8FK+5SYQLxJOJF5dFC8JRcAKxNu+8QbjbUuk0kC8YvvGG4pX7FDIhuKN3njn8QIWbALxvpe2cLwxirNAvH0+eW+LKV6qz96mvG9p2woq5/B3onVCDKzW2opZOd0opbI5U6cycZFWtZSqmx9b65kpYKqZUqrR7jG8eyxuQXj3sB7KNbWvxVlZbfyXTO6uDarU/1JaoZVRlhvfq2hGTZNGei/PJFTfw1RT5JKquNileXZlqBxv2dsmD+BtcYoQhHfLpRLXndFJvO1F6nvGtSetVK4yfih4CNJNfTaTeFwPeIyFzdKbgS+xrqXXrCUk9WK8yA5RCN7T5aCnxWSUTK+xZUNA+dkq96SVylaeymQDm04isH7h1WAxxbcx3NBSSu/9EG/GWVZ2Kd4Dku8MXqSGI85zaj+ISifJzNiXqwRVciZlaqVUnfK+cP5atagoM8f4TZ4H0lboJiVdEmLppVIqL2BS2IV4kXxZvJ9oanfR2Q8nAakBtI5xvba1p9I06Q4DpZMcXzt4AABcSVK/GcQ1pozsSjws3cWZOeEbipeWZpsBXtwOX1Ty90cuu3nHQmmtM0zMmO+YzAEnHaGboaXhcrXNbp1VN3ge6zmbIkbxKKgDXXPrTm3gtUV4W35jsbrjilkXzFKUXFOXHXIgDyEBXYzLE3O5h5TtW+VYYq/JctoPkEpzXRjY4uyvwcMK+HgJXhGMFypXN4BlH7kJCZovme72QwUEGCNEaJgVxBdYyAg0IyA4yTEZPOf8YCzJLBjhT+Plb0AVvngafMaSVmJbIUppM6Ia7oQ9zctgDuopAUm8qfko7fBVPB9vuYt/67Q6bodX+AxeRSHQ0Ms9F05gwBKTPN5hq2J9wQ2QcXEuMS/2Yd4+hPdjrjDbrLaE7xTejIXQMZGnUK7xxLwLwOu4LKn5QKX9E97FMPbZQ3iDthUl+B7m8DoWgmAmm6KJH8I3AXgFhzdjw5/pX43ueIq+RvnjeMXmE3xjHi/EQyiIsSMBTUDmIXglg1KF4k1vpkUrRLOk7g3aFEMt+EbL8EpinJEMQF5NPog3FTMJ2ZLQp4WKvR/vDrk0CK/YID9sZvAWgXgVoUUT31K8Dec6Rz8JjS+IyOB/gXhpBbafw0trttMMXhmINwctokfxam5d6tAWglcux3tEKAbixQXo8Ul4JT4+IvMgXsvtTCpakDdYQ4ny5XhLXD8E4oVHoufi5SPnMbxY9zviM8WVgGiE1GK8H/xpujhM4F39V3gbelKpcAhGltfqqXgPyA3B9+3xs/FWJHKIdboYrzW3ByIJzito7pVPxVuibvh7eBUpbimyxXhxaOB/3/I5ZUCX4jUTeO+ue/cI3gV410/BCwDpON5qOd7rKw3T31wVbqxESUbxpnfj3WKDG453/+zCzE282gVHtxgv0i9kGv5BtHSg++VwvDgXa0Px0nz9OF68WjVa99oFeKHkZ/tms9sqDIRR28Q2YASJhQoLFtkhVaq66KIvkPv+r3Rv2pTPZcahiaMrVfJZFuJGJ/6dGctQrlNojYmxR0fQeKPeGS/covcVzxJObT0XCbdEDDrOHXpB5S+TglS1YBnjaUCHWZnT+x4rkMTzG/ROKSEdSNBEIlog41rfrxe5qU6La/CxZcxdKqa35O2+YoUiFPFipwHmE/VSX6ZiX5bExI16FY0Y8e9gEgA9P7JKHF4ZJmKXLZ18iu0b9tMD9epIVk3z0k+36dUOb8exJlKK4vhgdElDW+C4v9q197GeP++Zm4M+TS9a4AO7jUjRa1vSNE/PFzWoyIcLXGWf1133DTlJjil27eIIuwGO/f4VH8Z1WNq4+hBv10vega53/EbOsAukCrYMDSncZH9jF7zUwPh6XwCGY+hoWM5dk2AJL2Dugg8uU/JMugcdVUuvYQ/3RvMJb1SVVZK1a8du6WZaAFQJysbSfxgipVe9JsZsR+onrGLtzl8KQTGUZ4YC5p7Z28jPw/ek8L54Kc/gLvcLSvj6Q4evbVp1qYjVTfB3I5W2n2YOLqznGeuVXzSjlYfsAN+tTX20oeSqVsjXZGAQOmWJ3wWvRt23hvuF3/9sALl0wt6kmOmaBCQGZIjC5BhSMQUxIbLiQwPbLSvafSlm/EGRptPkrLvJ2zG2F95g2AmQrFeEsJW1m3qbqN5tv3TZ1HItt+Fn3Tivw/FpI7PJsyf1ZbWU5tTJC5d0NfRKKV2wCvlzXdeCoSfQxhsM3UMt+Mw82lgGgD99fgs8qMmhmKemtekOblstCHMRZSifd+IKU/nFW/GdstxN4j9Qj+qMtuKRtFG9Mnq7Q42VyPwA6z9uXugzo/qopwfZYSLarAv4qx6Ge5FJoccSxl2iUCKTQAu77EHGi8z9eJwLVqjce5Np48uXzXpT0QhzxgLoWmTuxUf2tkhWGZG5G4n0JOUSrskk6j1V0eSlyaeKdL2efZYXtlR6NjCGOJoUmQQqBB45u50VmQRQYOar73HzbPcRWMRufPNlePxM8shsNwGEFoD8h8uxnBRo/ROHrEXmIShD5Y4i8yiscqHb7vA7zhJ/AY+VAUraBxlZAAAAAElFTkSuQmCC;" vertex="1" parent="1">
          <mxGeometry x="63" y="680" width="129" height="140" as="geometry"/>
        </mxCell>
        <mxCell id="pCCqeaRGn8NaipejfHK0-14" value="&lt;h1&gt;BACK END&lt;/h1&gt;&lt;p&gt;Lorem ipsum dolor sit amet, consectetur adipisicing elit, sed do eiusmod tempor incididunt ut labore et dolore magna aliqua.&lt;/p&gt;" style="text;html=1;strokeColor=none;fillColor=none;spacing=5;spacingTop=-20;whiteSpace=wrap;overflow=hidden;rounded=0;" vertex="1" parent="1">
          <mxGeometry x="210" y="300" width="190" height="120" as="geometry"/>
        </mxCell>
        <mxCell id="pCCqeaRGn8NaipejfHK0-15" value="&lt;h1&gt;BACKEND&lt;/h1&gt;&lt;p&gt;Lorem ipsum dolor sit amet, consectetur adipisicing elit, sed do eiusmod tempor incididunt ut labore et dolore magna aliqua.&lt;/p&gt;" style="text;html=1;strokeColor=none;fillColor=none;spacing=5;spacingTop=-20;whiteSpace=wrap;overflow=hidden;rounded=0;" vertex="1" parent="1">
          <mxGeometry x="210" y="460" width="190" height="120" as="geometry"/>
        </mxCell>
        <mxCell id="pCCqeaRGn8NaipejfHK0-16" value="&lt;h1&gt;DATA BASE&lt;/h1&gt;&lt;p&gt;Lorem ipsum dolor sit amet, consectetur adipisicing elit, sed do eiusmod tempor incididunt ut labore et dolore magna aliqua.&lt;/p&gt;" style="text;html=1;strokeColor=none;fillColor=none;spacing=5;spacingTop=-20;whiteSpace=wrap;overflow=hidden;rounded=0;" vertex="1" parent="1">
          <mxGeometry x="210" y="680" width="190" height="120" as="geometry"/>
        </mxCell>
      </root>
    </mxGraphModel>
  </diagram>
</mxfile>
